/* XPM */
static char *result[] = {
/* columns rows colors chars-per-pixel */
"64 64 169 2 ",
"   c #EDE57B",
".  c #483989",
"X  c #53448E",
"o  c #584A8F",
"O  c #544690",
"+  c #574991",
"@  c #5A4C91",
"#  c #645795",
"$  c #665995",
"%  c #6E5C96",
"&  c #675998",
"*  c #6B5E9B",
"=  c #6D619C",
"-  c #706197",
";  c #726499",
":  c #766A9C",
">  c #7A6E9B",
",  c #695FA9",
"<  c #6C62A9",
"1  c #7266A2",
"2  c #7569A2",
"3  c #736AAA",
"4  c #786FAB",
"5  c #7167A9",
"6  c #7C73AA",
"7  c #7B72A6",
"8  c #80759D",
"9  c #867C9E",
"0  c #A07F9E",
"q  c #8275A5",
"w  c #857AAB",
"e  c #887CAE",
"r  c #877DA1",
"t  c #927EA4",
"y  c #9D9499",
"u  c #A1819F",
"i  c #A39993",
"p  c #B6AD92",
"a  c #BAB29C",
"s  c #8C83A2",
"d  c #8D85AE",
"f  c #8F88AF",
"g  c #958DA4",
"h  c #958BAA",
"j  c #9991A4",
"k  c #8F84B0",
"l  c #9387B4",
"z  c #978CB6",
"x  c #988DB7",
"c  c #9B8FB8",
"v  c #9C93B4",
"b  c #9D92B9",
"n  c #A389A1",
"m  c #A596A6",
"M  c #A39AA7",
"N  c #A390AA",
"B  c #AA94AC",
"V  c #A59DAA",
"C  c #A99BAB",
"Z  c #B19AAE",
"A  c #A49CB1",
"S  c #A59BBA",
"D  c #A6A0A9",
"F  c #AAA3AA",
"G  c #AEA8AC",
"H  c #B4AFAD",
"J  c #B5B0AE",
"K  c #BDB7A9",
"L  c #ADA6B1",
"P  c #A7A1B6",
"I  c #B6A7B2",
"U  c #B1ABB4",
"Y  c #BBB6B5",
"T  c #BEBAB5",
"R  c #BDB8B8",
"E  c #C6BD86",
"W  c #D6A4A8",
"Q  c #D7A9A9",
"!  c #D9B6AD",
"~  c #DBB8AE",
"^  c #C1BCB4",
"/  c #C1BCBC",
"(  c #EBB5AC",
")  c #E9BAAE",
"_  c #D9D183",
"`  c #E3DB86",
"'  c #EDE583",
"]  c #F6F08C",
"[  c #EDE792",
"{  c #EAE499",
"}  c #F3EF9B",
"|  c #DCD7A8",
" . c #CAC6B3",
".. c #CDC9B6",
"X. c #CCC9B9",
"o. c #D1CEB6",
"O. c #DDCCB4",
"+. c #D7C0BB",
"@. c #D1CEBC",
"#. c #D7D3B7",
"$. c #D5D2BA",
"%. c #D9D6B9",
"&. c #DEDBBA",
"*. c #EEC7B2",
"=. c #E1CFB5",
"-. c #EECBB3",
";. c #F1C9B2",
":. c #EED0B4",
">. c #EFD9B7",
",. c #E4D2BF",
"<. c #E0DEBB",
"1. c #F1D3B6",
"2. c #F3DFBA",
"3. c #F0ECAB",
"4. c #F3EEA1",
"5. c #F5F1A5",
"6. c #E4E2BD",
"7. c #E9E6BD",
"8. c #EBE9BE",
"9. c #E7E4B3",
"0. c #F1EFB6",
"q. c #F3E5BB",
"w. c #F9E6BC",
"e. c #F4ECBE",
"r. c #F7F5B4",
"t. c #F3F2BE",
"y. c #FAF4BF",
"u. c #A79CC0",
"i. c #A99EC1",
"p. c #B0A6C2",
"a. c #BFB6CB",
"s. c #C1B7CD",
"d. c #C5BCCF",
"f. c #CAC3C5",
"g. c #CDC6C9",
"h. c #D4CDCF",
"j. c #DCD7C4",
"k. c #DDD9CD",
"l. c #CCC3D5",
"z. c #D1C9D6",
"x. c #D7CFD9",
"c. c #DDD6D3",
"v. c #DDD5DE",
"b. c #EAD1C2",
"n. c #E8D9C0",
"m. c #E3DCD6",
"M. c #E1DADA",
"N. c #E3E0C2",
"B. c #EEECC6",
"V. c #E6E2C8",
"C. c #EAE6CD",
"Z. c #EEEBC8",
"A. c #F0EEC6",
"S. c #FCECC6",
"D. c #F2EFCA",
"F. c #F4F3C1",
"G. c #F9F5C2",
"H. c #F7F8C2",
"J. c #F9F9C2",
"K. c #F6F4CD",
"L. c #E6E1D3",
"P. c #E8E4D3",
"I. c #ECE7D8",
"U. c #EDE8DB",
"Y. c #F1ECDB",
"T. c #FAF8D0",
"R. c #DED5E1",
"E. c #E0D8E0",
"W. c None",
/* pixels */
"W.W.W.W.W.W.W.W.W.W.W.W.W.W.W.W.W.W.W.W.W.W.W.W.W.W.W.W.W.W.W.W.W.W.W.W.W.W.W.W.W.W.W.W.W.W.W.W.W.W.W.W.W.W.W.W.W.W.W.W.W.W.W.W.",
"W.W.W.W.W.W.W.W.W.W.W.W.W.W.W.W.W.W.W.W.W.W.W.W.W.W.W.W.W.W.W.W.W.W.W.W.W.W.W.W.W.W.W.W.W.W.W.W.W.W.W.W.W.W.W.W.W.W.W.W.W.W.W.W.",
"W.W.W.W.W.W.W.W.W.W.W.W.W.W.W.W.W.W.W.W.W.W.W.W.W.W.W.W.W.W.W.W.W.W.W.W.W.W.W.W.W.W.W.W.W.W.W.W.W.W.W.W.W.W.W.W.W.W.W.W.W.W.W.W.",
"W.W.W.W.W.W.W.W.W.W.W.W.W.W.W.W.W.W.W.W.W.W.W.W.W.W.W.W.W.W.W.W.W.W.W.W.W.W.W.W.W.W.W.W.W.W.W.W.W.W.W.W.W.W.W.W.W.W.W.W.W.W.W.W.",
"W.W.W.W.W.W.W.W.W.W.W.W.W.W.W.W.W.W.W.W.W.W.W.W.W.W.W.W.W.W.W.W.W.W.W.W.W.W.W.W.W.W.W.W.W.W.W.W.W.W.W.W.W.W.W.W.W.W.W.W.W.W.W.W.",
"W.W.W.W.W.W.W.W.W.W.W.W.W.W.W.W.W.W.W.W.W.W.W.W.W.W.W.W.W.W.W.W.W.W.W.W.W.W.W.W.W.W.W.W.W.W.W.W.W.W.W.W.W.W.W.W.W.W.W.W.W.W.W.W.",
"W.W.W.W.W.W.W.W.W.W.W.W.W.W.W.W.W.W.W.W.W.W.W.W.W.W.W.W.W.W.W.W.W.W.W.W.W.W.W.W.W.W.W.W.W.W.W.W.W.W.W.W.W.W.W.W.W.W.W.W.W.W.W.W.",
"W.W.W.W.W.W.W.W.W.W.W.W.W.W.W.W.W.W.W.W.W.W.W.W.W.W.W.W.W.W.W.W.W.W.W.W.W.W.W.W.W.W.W.W.W.W.W.W.W.W.W.W.W.W.W.W.W.W.W.W.W.W.W.W.",
"W.W.W.W.W.W.W.W.W.W.W.W.W.W.W.W.W.W.W.W.W.W.W.W.W.W.W.W.W.W.W.W.W.W.W.W.W.W.W.W.W.W.W.W.W.W.W.W.W.W.W.W.W.W.W.W.W.W.W.W.W.W.W.W.",
"W.W.W.W.W.W.W.W.W.W.W.W.W.W.W.W.W.W.W.W.@ @ @ @ @ @ @ W.W.W.W.W.W.W.W.W.W.W.@ @ @ @ @ @ o W.W.W.W.W.W.W.W.W.W.W.W.W.W.W.W.W.W.W.",
"W.W.W.W.W.W.W.W.W.W.W.W.W.W.W.W.W.W.W.: > > > > > > : ; W.W.W.W.W.W.W.W.W.; > > > > > > > : W.W.W.W.W.W.W.W.W.W.W.W.W.W.W.W.W.W.",
"W.W.W.W.W.W.W.W.W.W.W.W.W.W.W.W.W.W.- g G J J J J J F s $ W.W.W.W.W.W.W.$ s D H J J J J G g = W.W.W.W.W.W.W.W.W.W.W.W.W.W.W.W.W.",
"W.W.W.W.W.W.W.W.W.W.W.W.W.W.W.W.W.+ ; M #.8.7.7.8.8...j $ O W.W.W.W.W.O $ g o.7.8.7.8.8.#.M ; o W.W.W.W.W.W.W.W.W.W.W.W.W.W.W.W.",
"W.W.W.W.W.W.W.W.W.W.W.W.W.W.W.W.W.+ - m =.w.w.w.y.G.#.j # X X W.W.W.X X $ j %.y.y.w.w.w.=.m - + W.W.W.W.W.W.W.W.W.W.W.W.W.W.W.W.",
"W.W.W.W.W.W.W.W.W.W.W.W.W.W.W.W.W.+ - u ~ ;.;.;.2.e.#.j # O X o o o o O # j #.A.2.;.;.;.~ u - + W.W.W.W.W.W.W.W.W.W.W.W.W.W.W.W.",
"W.W.W.W.W.W.W.W.W.W.W.W.W.W.W.W.W.o - u Q ( ( ) 1.e.%.V : * = = = = * & 2 D %.e.1.) ( ( Q u - o W.W.W.W.W.W.W.W.W.W.W.W.W.W.W.W.",
"W.W.W.W.W.W.W.W.W.W.W.W.W.W.W.W.W.@ % 0 W ( ( ( 1.q.6.T S c b b b b b b S R 6.q.-.( ( ( W u % + W.W.W.W.W.W.W.W.W.W.W.W.W.W.W.W.",
"W.W.W.W.W.W.W.W.W.W.W.W.W.W.W.W.W.@ % u Q ( ( ) -.8.B.k.z.l.l.l.l.l.l.l.z.k.B.e.:.( ( ( Q u % + W.W.W.W.W.W.W.W.W.W.W.W.W.W.W.W.",
"W.W.W.W.W.W.W.W.W.W.W.W.W.W.W.W.W.+ - n ! *.*.*.>.e.B.P.M.E.E.E.v.E.E.E.v.P.B.e.>.-.*.*.! n - + W.W.W.W.W.W.W.W.W.W.W.W.W.W.W.W.",
"W.W.W.W.W.W.W.W.W.W.W.W.W.W.W.W.W.+ - m O.2.q.2.8.t.B.P.v.R.E.E.E.R.E.R.M.P.B.t.q.9.q.q.O.m - + W.W.W.W.W.W.W.W.W.W.W.W.W.W.W.W.",
"W.W.W.W.W.W.W.W.W.W.W.W.W.W.W.W.W.o - D &.G.t.t.F.F.B.L.v.v.R.v.v.v.v.R.v.C.B.t.F.F.F.F.<.D - + W.W.W.W.W.W.W.W.W.W.W.W.W.W.W.W.",
"W.W.W.W.W.W.W.W.W.W.W.W.W.W.W.W.W.o ; D &.J.H.F.t.t.B.L.v.R.v.v.v.v.v.R.v.L.B.F.t.F.H.J.<.D ; o W.W.W.W.W.W.W.W.W.W.W.W.W.W.W.W.",
"W.W.W.W.W.W.W.W.W.W.W.W.W.W.W.W.W.+ - D &.H.H.F.t.F.B.P.v.v.R.v.v.R.R.v.v.L.B.F.t.t.G.G.<.D - + W.W.W.W.W.W.W.W.W.W.W.W.W.W.W.W.",
"W.W.W.W.W.W.W.W.W.W.W.W.W.W.W.W.W.+ - V 6.H.G.F.H.F.A.P.L.c.m.c.m.c.m.v.m.C.B.F.F.t.H.H.<.D ; + W.W.W.W.W.W.W.W.W.W.W.W.W.W.W.W.",
"W.W.W.W.W.W.W.W.W.W.W.W.W.W.W.@ + + ; D <.J.J.J.G.F.A.B.C.C.C.C.C.C.C.C.C.B.F.F.G.H.J.H.&.F ; o @ @ W.W.W.W.W.W.W.W.W.W.W.W.W.W.",
"W.W.W.W.W.W.W.W.W.W.W.W.W.W.# @ @ + ; F <.t.t.8.e.t.F.t.A.F.F.A.A.F.F.A.A.t.t.A.e.0.t.G.<.D - @ @ @ @ W.W.W.W.W.W.W.W.W.W.W.W.W.",
"W.W.W.W.W.W.W.W.W.W.W.W.W.W.W.@ + o ; F <.7.o.^ o.7.F.t.t.F.t.t.t.t.t.t.t.t.t.7.o.^ o.7.<.F ; o @ @ W.W.W.W.W.W.W.W.W.W.W.W.W.W.",
"W.W.W.W.W.W.W.W.W.W.W.W.W.W.W.W.+ o ; F <.#.M s G %.F.G.F.t.t.t.F.F.F.t.F.H.t.&.F s V #.&.F ; o + W.W.W.W.W.W.W.W.W.W.W.W.W.W.W.",
"W.W.W.W.W.W.W.W.W.W.W.W.W.W.W.W.W.+ ; F &.#.j 8 M %.F.H.F.A.A.t.t.t.F.F.F.F.F.%.M 8 j o.<.F ; + W.W.W.W.W.W.W.W.W.W.W.W.W.W.W.W.",
"W.W.W.W.W.W.W.W.W.W.W.W.W.W.W.W.+ + ; F <.<.^ F T 6.t.H.t.t.F.F.t.A.t.F.F.H.t.6.^ F ^ <.&.F ; + + W.W.W.W.W.W.W.W.W.W.W.W.W.W.W.",
"W.W.W.W.W.W.W.W.W.W.W.W.W.W.@ @ + + ; F &.t.7.<.9.8.F.F.t.t.F.t.F.F.F.t.t.t.t.8.6.<.7.F.6.D ; + @ @ @ W.W.W.W.W.W.W.W.W.W.W.W.W.",
"W.W.W.W.W.W.W.W.W.W.W.W.W.W.W.@ + + ; C <.G.G.G.G.G.H.t.H.t.F.F.t.F.F.F.F.H.F.H.G.G.G.G.<.C ; @ @ @ W.W.W.W.W.W.W.W.W.W.W.W.W.W.",
"W.W.W.W.W.W.W.W.W.W.W.W.W.W.W.W.O @ - B b.S.S.S.G.F.H.H.H.H.t.y.H.H.H.H.H.H.H.F.S.S.S.S.,.B - + + W.W.W.W.W.W.W.W.W.W.W.W.W.W.W.",
"W.W.W.W.W.W.W.W.W.W.W.W.W.W.W.W.W.O ; N ~ b.b.b.n.7.7.B.8.8.8.8.8.7.8.7.7.8.8.7.n.b.b.b.+.N - + W.W.W.W.W.W.W.W.W.W.W.W.W.W.W.W.",
"W.W.W.W.W.W.W.W.W.W.W.W.W.W.W.W.W.W.- t S Z Z Z I Y ^ ^ T T R R R R R T T T T Y I Z Z Z B t - W.W.W.W.W.W.W.W.W.W.W.W.W.W.W.W.W.",
"W.W.W.W.W.W.W.W.W.W.W.W.W.W.W.W.W.W.W.; ; : : : 7 d d f f d d d d d d d f f d d q : ; : : ; W.W.W.W.W.W.W.W.W.W.W.W.W.W.W.W.W.W.",
"W.W.W.W.W.W.W.W.W.W.W.W.W.W.W.W.W.W.W.1 = : : : : 5 5 5 3 7 9 s s d d 6 3 5 3 5 : : : 1 1 ; W.W.W.W.W.W.W.W.W.W.W.W.W.W.W.W.W.W.",
"W.W.W.W.W.W.W.W.W.W.W.W.W.W.W.W.W.W.* e v S L F h 6 < < 5 9 y p K Y P d 5 < < 6 h F L P b e * W.W.W.W.W.W.W.W.W.W.W.W.W.W.W.W.W.",
"W.W.W.W.W.W.W.W.W.W.W.W.W.W.W.W.W.+ * c l.c.V.&.Y f 4 3 7 y _ _ { 9.X.v 6 3 4 f Y j.V.c.d.c = o W.W.W.W.W.W.W.W.W.W.W.W.W.W.W.W.",
"W.W.W.W.W.W.W.W.W.W.W.W.W.W.W.W.W.+ * c z.U.T.F.#.U v b v a _   ] 4.| Y D v v U $.F.T.Y.z.c = + W.W.W.W.W.W.W.W.W.W.W.W.W.W.W.W.",
"W.W.W.W.W.W.W.W.W.W.W.W.W.W.W.W.W.+ = b z.Y.K.G.8.%.o.@.#.| `     ' { | o.@.@.%.8.H.K.U.z.b * + W.W.W.W.W.W.W.W.W.W.W.W.W.W.W.W.",
"W.W.W.W.W.W.W.W.W.W.W.W.W.W.W.W.W.+ * z s.z.j.6.8.8.F.A.8.3.[ '   ' [ 3.t.H.t.8.7.<.j.h.s.z = + W.W.W.W.W.W.W.W.W.W.W.W.W.W.W.W.",
"W.W.W.W.W.W.W.W.W.W.W.W.W.W.W.W.W.W.* e x v M G  .8.y.J.r.r.5.} } } 5.r.y.J.y.8...G v v z w * W.W.W.W.W.W.W.W.W.W.W.W.W.W.W.W.W.",
"W.W.W.W.W.W.W.W.W.W.W.W.W.W.W.W.W.W.W.* = * * > F %.G.G.F.t.t.0.0.0.0.t.t.y.t.&.D > - = = * W.W.W.W.W.W.W.W.W.W.W.W.W.W.W.W.W.W.",
"W.W.W.W.W.W.W.W.W.W.W.W.W.W.W.W.W.W.W.W.+ X X # j @.D.K.D.N.$... .X.$.N.Z.K.D.g.j # X O o W.W.W.W.W.W.W.W.W.W.W.W.W.W.W.W.W.W.W.",
"W.W.W.W.W.W.W.W.W.W.W.W.W.W.W.W.W.W.W.W.W.X X # k g.I.Y.m.f.A s s s D f.P.U.I.g.h # X X W.W.W.W.W.W.W.W.W.W.W.W.W.W.W.W.W.W.W.W.",
"W.W.W.W.W.W.W.W.W.W.W.W.W.W.W.W.W.W.W.W.W.W.X & l a.x.v.z.p.q # + # 7 p.z.v.x.a.k & O W.W.W.W.W.W.W.W.W.W.W.W.W.W.W.W.W.W.W.W.W.",
"W.W.W.W.W.W.W.W.W.W.W.W.W.W.W.W.W.W.W.W.W.W.W.& w b S i.S l 1 O . X 1 l S i.u.b w & W.W.W.W.W.W.W.W.W.W.W.W.W.W.W.W.W.W.W.W.W.W.",
"W.W.W.W.W.W.W.W.W.W.W.W.W.W.W.W.W.W.W.W.W.W.W.W.; 2 2 2 2 2 W.W.W.W.W.2 : 2 2 2 1 W.W.W.W.W.W.W.W.W.W.W.W.W.W.W.W.W.W.W.W.W.W.W.",
"W.W.W.W.W.W.W.W.W.W.W.W.W.W.W.W.W.W.W.W.W.W.W.W.W.+ @ @ @ @ W.W.W.W.W.@ @ @ + @ W.W.W.W.W.W.W.W.W.W.W.W.W.W.W.W.W.W.W.W.W.W.W.W.",
"W.W.W.W.W.W.W.W.W.W.W.W.W.W.W.W.W.W.W.W.W.W.W.W.W.W.W.W.W.W.W.W.W.W.W.W.W.W.W.W.W.W.W.W.W.W.W.W.W.W.W.W.W.W.W.W.W.W.W.W.W.W.W.W.",
"W.W.W.W.W.W.W.W.W.W.W.W.W.W.W.W.W.W.W.W.W.W.W.W.W.W.W.W.W.W.W.W.W.W.W.W.W.W.W.W.W.W.W.W.W.W.W.W.W.W.W.W.W.W.W.W.W.W.W.W.W.W.W.W.",
"W.W.W.W.W.W.W.W.W.W.W.W.W.W.W.W.W.W.W.W.W.W.W.W.W.W.W.W.W.W.W.W.W.W.W.W.W.W.W.W.W.W.W.W.W.W.W.W.W.W.W.W.W.W.W.W.W.W.W.W.W.W.W.W.",
"W.W.W.W.W.W.W.W.W.W.W.W.W.W.W.W.W.W.W.W.W.W.W.W.W.W.W.W.W.W.W.W.W.W.W.W.W.W.W.W.W.W.W.W.W.W.W.W.W.W.W.W.W.W.W.W.W.W.W.W.W.W.W.W.",
"W.W.W.W.W.W.W.W.W.W.W.W.W.W.W.W.W.W.W.W.W.W.W.W.W.W.W.W.W.W.W.W.W.W.W.W.W.W.W.W.W.W.W.W.W.W.W.W.W.W.W.W.W.W.W.W.W.W.W.W.W.W.W.W.",
"W.W.W.W.W.W.W.W.W.W.W.W.W.W.W.W.W.W.W.W.W.W.W.W.W.W.W.W.W.W.W.W.W.W.W.W.W.W.W.W.W.W.W.W.W.W.W.W.W.W.W.W.W.W.W.W.W.W.W.W.W.W.W.W.",
"W.W.W.W.W.W.W.W.W.W.W.W.W.W.W.W.W.W.W.W.W.W.W.W.W.W.W.W.W.W.W.W.W.W.W.W.W.W.W.W.W.W.W.W.W.W.W.W.W.W.W.W.W.W.W.W.W.W.W.W.W.W.W.W.",
"W.W.W.W.W.W.W.W.W.W.W.W.W.W.W.W.W.W.W.W.W.W.W.W.W.W.W.W.W.W.W.W.W.W.W.W.W.W.W.W.W.W.W.W.W.W.W.W.W.W.W.W.W.W.W.W.W.W.W.W.W.W.W.W.",
"W.W.W.W.W.W.W.W.W.W.W.W.W.W.W.W.W.W.W.W.W.W.W.W.W.W.W.W.W.W.W.W.W.W.W.W.W.W.W.W.W.W.W.W.W.W.W.W.W.W.W.W.W.W.W.W.W.W.W.W.W.W.W.W.",
"W.W.W.W.W.W.W.W.W.W.W.W.W.W.W.W.W.W.W.W.W.W.W.W.W.W.W.W.W.W.W.W.W.W.W.W.W.W.W.W.W.W.W.W.W.W.W.W.W.W.W.W.W.W.W.W.W.W.W.W.W.W.W.W.",
"W.W.W.W.W.W.W.W.W.W.W.W.W.W.W.W.W.W.W.W.W.W.W.W.W.W.W.W.W.W.W.W.W.W.W.W.W.W.W.W.W.W.W.W.W.W.W.W.W.W.W.W.W.W.W.W.W.W.W.W.W.W.W.W.",
"W.W.W.W.W.W.W.W.W.W.W.W.W.W.W.W.W.W.W.W.W.W.W.W.W.W.W.W.W.W.W.W.W.W.W.W.W.W.W.W.W.W.W.W.W.W.W.W.W.W.W.W.W.W.W.W.W.W.W.W.W.W.W.W.",
"W.W.W.W.W.W.W.W.W.W.W.W.W.W.W.W.W.W.W.W.W.W.W.W.W.W.W.W.W.W.W.W.W.W.W.W.W.W.W.W.W.W.W.W.W.W.W.W.W.W.W.W.W.W.W.W.W.W.W.W.W.W.W.W.",
"W.W.W.W.W.W.W.W.W.W.W.W.W.W.W.W.W.W.W.W.W.W.W.W.W.W.W.W.W.W.W.W.W.W.W.W.W.W.W.W.W.W.W.W.W.W.W.W.W.W.W.W.W.W.W.W.W.W.W.W.W.W.W.W."
};
