/* XPM */
static char *result[] = {
/* columns rows colors chars-per-pixel */
"11 14 6 1 ",
"  c #754C60",
". c #90625D",
"X c #AA7959",
"o c #C49A6C",
"O c #E8CFA6",
"+ c None",
/* pixels */
"+        + ",
" oooooooo  ",
"o........o ",
".......... ",
"..X....X.. ",
"..X....X.. ",
"..X....X.. ",
"..X....X.. ",
"..X....OO. ",
"..X....X.. ",
"..X....X.. ",
"..X....X.. ",
".......... ",
"           "
};
