/* XPM */
static char *result[] = {
/* columns rows colors chars-per-pixel */
"64 64 79 1 ",
"  c #6E455F",
". c #70475F",
"X c #71485F",
"o c #794F5F",
"O c #7C525F",
"+ c #744B60",
"@ c #794F60",
"# c #7E5461",
"$ c #81565E",
"% c #84595E",
"& c #8C5F5D",
"* c #8F615D",
"= c #91635D",
"- c #97685C",
"; c #9A6B5B",
": c #9F705A",
"> c #A06F59",
", c #A47357",
"< c #A97757",
"1 c #AA7857",
"2 c #A3735A",
"3 c #A87759",
"4 c #AB7A59",
"5 c #805762",
"6 c #845B62",
"7 c #885F64",
"8 c #8C6364",
"9 c #8B6368",
"0 c #916662",
"q c #946A65",
"w c #9B6F61",
"e c #9D7265",
"r c #9F7569",
"t c #A17665",
"y c #A57A66",
"u c #AA7D64",
"i c #A37A6D",
"p c #A97F69",
"a c #A67F73",
"s c #AF805F",
"d c #B1815F",
"f c #AD8165",
"g c #AC8269",
"h c #B18769",
"j c #B58B6A",
"k c #BA8F69",
"l c #BC926B",
"z c #A68073",
"x c #AA8272",
"c c #B38B76",
"v c #B28C79",
"b c #BB9375",
"n c #BF9977",
"m c #BA947B",
"M c #BE987A",
"N c #C1966C",
"B c #C59B6C",
"V c #C99F6D",
"C c #C39E7C",
"Z c #CBA273",
"A c #CCA57B",
"S c #CFA87C",
"D c #D3AD7D",
"F c #BE9A81",
"G c #C19E84",
"H c #C5A386",
"J c #CAA785",
"K c #C4A388",
"L c #CAA98B",
"P c #D6B285",
"I c #D9B585",
"U c #D4B592",
"Y c #D6B894",
"T c #DBBE9A",
"R c #DFC39C",
"E c #E1C59E",
"W c #E2C7A0",
"Q c #E5CAA1",
"! c None",
/* pixels */
"!!@@@+@@+@+++!!!!!!!!!!!!!!!!!!!!!!!!!!!!!!!!!!!!@++++@++@+@!!!!",
"!!.+.++.++++!!!!!!!!!!!!!!!!!!!!!!!!!!!!!!!!!!!!!!+++.++++.+!!!!",
"!!.++.XX ++!!!!!!!!!!!!!!!!!!!!!!!!!!!!!!!!!!!!!!!!+++.X...+!!!!",
"!!++++++++!!!!!!!!!!!!!!!!!!!!!!!!!!!!!!!!!!!!!!!!!!+++@++++!!!!",
"!!55556655!!!!!!!!!!!!!!!!!!!!!!!!!!!!!!!!!!!!!!!!!!#55665#6!!!!",
"!!qeqeqqq95!!!!!!!!!!!!!!!!!!!!!!!!!!!!!!!!!!!!!!!!68qqqqqqe!!!!",
"!!ggghggpq6@!!!!!!!!!!!!!!!!!!!!!!!!!!!!!!!!!!!!!!@6epgghggg!!!!",
"!!NllBBlhr6#+!!!!!!!!!!!!!!!!!!!!!!!!!!!!!!!!!!!!+@6eglBlBln!!!!",
"!!BBBVVBjr8+.!!!!!!!!!!!!!!!!!!!!!!!!!!!!!!!!!!!!.o6ejBVVVBB!!!!",
"!!VBBVVBje6@.!!!!!X. X. ..+++ ++....XX+... +!!!!! o9ejBVVVVB!!!!",
"!!BBBVVBjr8@X!!!!+++@++@++++++++@X++++++++++@!!!!Xo6rjBVVBBB!!!!",
"!!BBBBBBje6@X!!!!#############55##5##########!!!!Xo9ejlVBBBB!!!!",
"!!BBVBVBhe6@X !!980qqqqqqqqqqqqqqqqqqqqqqq0q88!! .@8ejBVBBNB!!!!",
"!!BBlBBlje8o. +#qtgggpgpgggpupphgggfgpffgggpeq#+..@6ejlVBNBB!!!!",
"!!BBVVVljr6oX.@6qgjllllllkllkkkNlklljllllllkgq6@..@6rjBVBBBB!!!!",
"!!ZZZZZZbr9@@#68efkkllkkkkkkkkkNkkkklkjkllljfe86#oo9ijZZZZZZ!!!!",
"!!DDDDDDni9##9eeyfffffffuuhuhuuuuuuuuuuuffuuuytw8OO9znSDDDSS!!!!",
"!!IIPIIPGz9#6eghfeew;:wwwwwww2>w2e:w2e:www>typhuq9#9zMPIIIII!!!!",
"!!PPIIIPCa9#8ejjfe-****-====0===00==00====*=tujje9#9zAPIIIPP!!!!",
"!!AAAASAmi6#%effu;***&&*****************&*&*;uhuw8@9rbADSSAA!!!!",
"!!kNlNNkge6#60eee-=************&*********&**q>tt0O#6egllNlll!!!!",
"!!udfddu2-6@#%--==******==**=*==*===*==**=*==-=0*O@%-tsdddfs!!!!",
"!!441111;=$oO$&*==*==---====*=*==**=*==--===*=*&OOo%*:344144!!!!",
"!!111111:*$oO%&*==*--;;===**=*=**==*=--;;-===*&&%OoO*:<31114!!!!",
"!!444444;=$oO$**====;>2;q==*=*===**==->>2;===**&$oO$*2114144!!!!",
"!!444444>=O@O$**=&=;>>3>;=**=**====*=;>>22;=&0=&$O#O*;3<443<!!!!",
"!!,>222,;&$@O$***==;:u3>;=*=*==**=**=->322-*=*=&$OOO*-,2222:!!!!",
"!!;;;;;;=%#@#$**===-:322;=**==*==***=w2322-*==*&%OOO%=;;;;;;!!!!",
"!!-=-===*%O@O$***=*->33>;=**===**=**=;>33:w-****%OOO%*=--==-!!!!",
"!!==---=*%O@O$***=0;>,3>;=**=*=*==*=0;>32:-*****%O@O%&=-==--!!!!",
"!!;;;;;;=%OOO%**=*=->t42;0**=*==*=**=;>33:--*-**$O@O%=;;;;;;!!!!",
"!!,2>,22;&OOO$***==-:3,>;=***==**=*==q>32:-*****$O#O&;222222!!!!",
"!!334444>*$+$%**=**-2322w=*===*==***=;>32>-=*=**%oo$=>333343!!!!",
"!!434444>*$+5%***==-w222-=****=*==*=0->3,>-****&%$o$=>344444!!!!",
"!!444444>=$5+$&*=*=w2222--**=*==&=&*=->>,>=****&$$o$=>444444!!!!",
"!!444444>=$+$$&*===-2322-=***=*====*=;>32>-***=*$oo$=2444444!!!!",
"!!444444>=$$$$%**==->232-=***==*****->tuuttqw0=&$$o$*>444444!!!!",
"!!444444>=5+$$&*=*=-2222w-**=**==***0epNGGNvarq&$oo$*>444444!!!!",
"!!444443>*$+$5**===-223>>=***==*****wiGJUUULGaw7$oo$*>444444!!!!",
"!!4u4443>&$$$$&=*==-222>-=*===*==***0aGYEWETLNr&$oo$=>34444u!!!!",
"!!23>,32>*$$+%&*=*=->322-=*==*=*=***=aGUTRTUHar=$o@$=;2343>2!!!!",
"!!;>>w>;=6$+$%***==->222w=***==*****wicCJJGGviw=$o@$6=;>w>>>!!!!",
"!!;---0-*%$+@$&*===-w232;=====*==***=wuhNppirw=&%o@O%=------!!!!",
"!!-==-==*%+$$5&*=*=-2222;=&&*==**=***w2332w-===&%$@o%*==-===!!!!",
"!!;q-;--*6$+5%&====-2322;=**=*====**=>>,2>-*****%$oo6*-;;q-w!!!!",
"!!>:>>>>-&$+$%&&===-2222;=**==**=**=*->,>>=****&$o@$&->>>>>:!!!!",
"!!333333;=$+5$&====-2232;=***=*=****=-><2w;=*==&%o@$*;343333!!!!",
"!!434443>*$.$$&==*=;w32>;0**=*=*==**=>><3>;*****%@@$*>344444!!!!",
"!!444444<-$oO%&====;>222;=**=*===***=->33>;=&==&%@@$=2444444!!!!",
"!!444444>=$oO$&====-;432;0**=**=*=**=w>33>-====&%$@$=>444444!!!!",
"!!444444;=$oO%&*====2222-=***==*0**==;>22:-====&$$@$=>444444!!!!",
"!!4444u42=$oo%&====;;>2;-============->>>w=====&$o@$=2444444!!!!",
"!!4444442=$oO%&=====;;;=-==*=========--;;--====&%$@$=>444444!!!!",
"!!444444;=$@O%&=======--=======*=**=**=-=0=*===&%@+$=>444444!!!!",
"!!223222;*$@@%%**&*&&&*&&&&&&&&&&**&&&&&&&*&**&%5$+$*->,3222!!!!",
"!!-=;--=*$O@@O%%%%%%%$$$%%%%6%%%$%%%%%%%%%%%%%%$$++$%*----=;!!!!",
"!!%6%$%6$O@+@@#O##OOOO#OOOOOOoO#$@#o$OOO#OOOOOOO@@+@#$%%6%$%!!!!",
"!!@@OO@@oO+@+@@++@@+@@@@@@@@@@o@@@@@+@@@@@@+@@@@+@+@@@@@oO@@!!!!",
"!!XX++XX+++++++X++++++++++++++++++++++++++++++++++++++XX++++!!!!",
"!!XX XXXXX+!+X+XX++++X!!!!!!!!!!!!!!!!!!!!!!!!!!!!!+XXXX....!!!!",
"!!@+oXX++@!!!+++++++@!!!!!!!!!!!!!!!!!!!!!!!!!!!!!!!o++++++@!!!!",
"!!########!!!###@@+@!!!!!!!!!!!!!!!!!!!!!!!!!!!!!!!!#O######!!!!",
"!!qq8q8q88!!68886#@+!!!!!!!!!!!!!!!!!!!!!!!!!!!!!!!!88q08qq8!!!!",
"!!pppgggtq6#9rtt06@+!!!!!!!!!!!!!!!!!!!!!!!!!!!!!!#6qrpppgpg!!!!"
};
