/* XPM */
static char *result[] = {
/* columns rows colors chars-per-pixel */
"64 64 142 2 ",
"   c #ADA27F",
".  c #D5CB7D",
"X  c #DDD37A",
"o  c #E3DA7A",
"O  c #F3EA76",
"+  c #4F408E",
"@  c #54458F",
"#  c #544690",
"$  c #574890",
"%  c #5A4C91",
"&  c #5E5093",
"*  c #695B8D",
"=  c #625594",
"-  c #675A95",
";  c #685C96",
":  c #625498",
">  c #675998",
",  c #6C5F9C",
"<  c #74678C",
"1  c #75688F",
"2  c #6D6197",
"3  c #6F6398",
"4  c #706497",
"5  c #71659A",
"6  c #766A9A",
"7  c #796E9B",
"8  c #7D7192",
"9  c #7D729C",
"0  c #6D65A8",
"q  c #7366A0",
"w  c #766AA3",
"e  c #796CA5",
"r  c #746BAA",
"t  c #7E73A5",
"y  c #7A72AB",
"u  c #80759C",
"i  c #847A9E",
"p  c #8177A3",
"a  c #857BA4",
"s  c #8275AA",
"d  c #847BAB",
"f  c #8A7EAB",
"g  c #908385",
"h  c #8A809F",
"j  c #938992",
"k  c #A69B84",
"l  c #B2A784",
"z  c #B3AA8D",
"x  c #B9B088",
"c  c #8B82A1",
"v  c #8D83AE",
"b  c #8F88AF",
"n  c #9187A3",
"m  c #958CA3",
"M  c #988FA4",
"N  c #9B92A5",
"B  c #9791AF",
"V  c #8D82B1",
"C  c #9186B3",
"Z  c #968BB6",
"A  c #9A8EB8",
"S  c #9C96B1",
"D  c #9F99B1",
"F  c #A297A6",
"G  c #A29AA7",
"H  c #A59DA9",
"J  c #A19BB2",
"K  c #A69BBF",
"L  c #A89EBC",
"P  c #ABA4AA",
"I  c #AFAAAC",
"U  c #B2ACAD",
"Y  c #B5B0AE",
"T  c #BAB5AF",
"R  c #ACA4B3",
"E  c #ADA4BA",
"W  c #B4ADBA",
"Q  c #BFACBA",
"!  c #B6B1B6",
"~  c #BAB5B2",
"^  c #BEB9B4",
"/  c #BEB5B8",
"(  c #C1BCB2",
")  c #C9BAB0",
"_  c #E7AEAA",
"`  c #E7B2AB",
"'  c #E8B4AB",
"]  c #E9BBAE",
"[  c #C5C1B4",
"{  c #CAC6B4",
"}  c #CDCAB4",
"|  c #C9C6B8",
" . c #D2CDB5",
".. c #D2CEBB",
"X. c #D6D2B7",
"o. c #D5D2BB",
"O. c #D9D6B9",
"+. c #DCD9BA",
"@. c #ECC5B1",
"#. c #E1CAB3",
"$. c #EDCBB3",
"%. c #EED4B6",
"&. c #E1DFBB",
"*. c #EEDCB9",
"=. c #F1D4B6",
"-. c #F2D8B7",
";. c #F2DEBA",
":. c #E5E3BC",
">. c #E9E6BD",
",. c #EDEBBE",
"<. c #F5E4BB",
"1. c #F8E5BB",
"2. c #F2EBBE",
"3. c #F3F1BF",
"4. c #A99EC1",
"5. c #B8AEC6",
"6. c #B9AFC9",
"7. c #BDB3CC",
"8. c #C8BFD2",
"9. c #D1CAC8",
"0. c #C9C0D2",
"q. c #D5CDD5",
"w. c #D9D2D4",
"e. c #DCD4DC",
"r. c #EACFC3",
"t. c #EAD4C3",
"y. c #E7E4C4",
"u. c #EAE0C0",
"i. c #E7E3CB",
"p. c #EFEDC9",
"a. c #F7E4C4",
"s. c #F5EDC2",
"d. c #F8EAC4",
"f. c #F4F3C0",
"g. c #F8F7C1",
"h. c #FAFAC2",
"j. c #F2F0CA",
"k. c #E9E3D6",
"l. c #EAE4DD",
"z. c #F0EBDA",
"x. c #F5F2D2",
"c. c None",
/* pixels */
"c.c.c.c.c.c.c.c.c.c.c.c.c.c.c.c.c.c.c.c.c.c.c.c.c.c.c.c.c.c.c.c.c.c.c.c.c.c.c.c.c.c.c.c.c.c.c.c.c.c.c.c.c.c.c.c.c.c.c.c.c.c.c.c.",
"c.c.c.c.c.c.c.c.c.c.c.c.c.c.c.c.c.c.c.c.c.c.c.c.c.c.c.c.c.c.c.c.c.c.c.c.c.c.c.c.c.c.c.c.c.c.c.c.c.c.c.c.c.c.c.c.c.c.c.c.c.c.c.c.",
"c.c.c.c.c.c.c.c.c.c.c.c.c.c.c.c.c.c.c.c.c.c.c.c.c.c.c.c.c.c.c.c.c.c.c.c.c.c.c.c.c.c.c.c.c.c.c.c.c.c.c.c.c.c.c.c.c.c.c.c.c.c.c.c.",
"c.c.c.c.c.c.c.c.c.c.c.c.c.c.c.c.c.c.c.c.c.c.c.c.c.c.c.c.c.c.c.c.c.c.c.c.c.c.c.c.c.c.c.c.c.c.c.c.c.c.c.c.c.c.c.c.c.c.c.c.c.c.c.c.",
"c.c.c.c.c.c.c.c.c.c.c.c.c.c.c.c.c.c.c.c.c.c.c.c.c.c.c.c.c.c.c.c.c.c.c.c.c.c.c.c.c.c.c.c.c.c.c.c.c.c.c.c.c.c.c.c.c.c.c.c.c.c.c.c.",
"c.c.c.c.c.c.c.c.c.c.c.c.c.c.c.c.c.c.c.c.c.c.c.c.c.c.c.c.c.c.c.c.c.c.c.c.c.c.c.c.c.c.c.c.c.c.c.c.c.c.c.c.c.c.c.c.c.c.c.c.c.c.c.c.",
"c.c.c.c.c.c.c.c.c.c.c.c.c.c.c.c.c.c.c.c.c.c.c.c.c.c.c.c.c.c.c.c.c.c.c.c.c.c.c.c.c.c.c.c.c.c.c.c.c.c.c.c.c.c.c.c.c.c.c.c.c.c.c.c.",
"c.c.c.c.c.c.c.c.c.c.c.c.c.c.c.c.c.c.c.c.c.c.c.c.c.c.c.c.c.c.c.c.c.c.c.c.c.c.c.c.c.c.c.c.c.c.c.c.c.c.c.c.c.c.c.c.c.c.c.c.c.c.c.c.",
"c.c.c.c.c.c.c.c.c.c.c.c.c.c.c.c.c.c.c.c.c.c.c.c.c.c.c.c.c.c.c.c.c.c.c.c.c.c.c.c.c.c.c.c.c.c.c.c.c.c.c.c.c.c.c.c.c.c.c.c.c.c.c.c.",
"c.c.c.c.c.c.c.c.c.c.c.c.c.c.c.c.c.c.c.c.c.c.c.c.c.c.c.c.c.c.c.% % % % % % % c.c.c.c.c.c.c.c.c.c.c.c.c.c.c.c.c.c.c.c.c.c.c.c.c.c.",
"c.c.c.c.c.c.c.c.c.c.c.c.c.c.c.c.c.c.c.c.c.c.c.c.c.c.c.c.c.c.c.7 7 9 9 7 7 7 6 c.c.c.c.c.c.c.c.c.c.c.c.c.c.c.c.c.c.c.c.c.c.c.c.c.",
"c.c.c.c.c.c.c.c.c.c.c.c.c.c.c.c.c.c.c.c.c.c.c.c.c.c.c.c.c.- 9 P U Y U Y Y U m 2 c.c.c.c.c.c.c.c.c.c.c.c.c.c.c.c.c.c.c.c.c.c.c.c.",
"c.c.c.c.c.c.c.c.c.c.c.c.c.c.c.c.c.c.c.c.c.c.c.c.c.c.c.c.# & c [ :.,.>.>.2.+.U u = c.c.c.c.c.c.c.c.c.c.c.c.c.c.c.c.c.c.c.c.c.c.c.",
"c.c.c.c.c.c.c.c.c.c.c.c.c.c.c.c.c.c.c.c.c.c.c.c.c.c.c.c.+ & c } 3.3.1.1.1.*.) F c 7 c.c.c.c.c.c.c.c.c.c.c.c.c.c.c.c.c.c.c.c.c.c.",
"c.c.c.c.c.c.c.c.c.c.c.c.c.c.c.c.c.c.c.c.c.c.c.c.c.c.$ $ # & c { 3.1.$.@.@.@.#.} T n - c.c.c.c.c.c.c.c.c.c.c.c.c.c.c.c.c.c.c.c.c.",
"c.c.c.c.c.c.c.c.c.c.c.c.c.c.c.c.c.c.c.c.c.c.c.c.c.2 3 3 2 6 N ..2.-.] ' ` ] =.2.X.N ; @ c.c.c.c.c.c.c.c.c.c.c.c.c.c.c.c.c.c.c.c.",
"c.c.c.c.c.c.c.c.c.c.c.c.c.c.c.c.c.c.c.c.c.c.c.c.- c N P H P ( &.2.%.' _ _ ' =.2.O.N ; # c.c.c.c.c.c.c.c.c.c.c.c.c.c.c.c.c.c.c.c.",
"c.c.c.c.c.c.c.c.c.c.c.c.c.c.c.c.c.c.c.c.c.c.c.# - M { &.:.+.:.f.,.%.] ` ' ] =.2.X.N ; # c.c.c.c.c.c.c.c.c.c.c.c.c.c.c.c.c.c.c.c.",
"c.c.c.c.c.c.c.c.c.c.c.c.c.c.c.c.c.c.c.c.c.c.c.# - N O.h.h.f.h.f.2.*.$.@.@.$.;.2.X.N ; # c.c.c.c.c.c.c.c.c.c.c.c.c.c.c.c.c.c.c.c.",
"c.c.c.c.c.c.c.c.c.c.c.c.c.c.c.c.c.c.c.c.c.c.c.# - M O.h.h.h.f.f.2.2.<.*.*.;.2.f.X.N ; # c.c.c.c.c.c.c.c.c.c.c.c.c.c.c.c.c.c.c.c.",
"c.c.c.c.c.c.c.c.c.c.c.c.c.c.c.c.c.c.c.c.c.c.c.# ; N o.f.f.f.f.f.f.f.3.2.3.3.f.f.X.N - # c.c.c.c.c.c.c.c.c.c.c.c.c.c.c.c.c.c.c.c.",
"c.c.c.c.c.c.c.c.c.c.c.c.c.c.c.c.c.c.c.c.c.c.c.# - N X.f.h.3.f.3.f.3.f.f.f.f.g.f.X.N - # c.c.c.c.c.c.c.c.c.c.c.c.c.c.c.c.c.c.c.c.",
"c.c.c.c.c.c.c.c.c.c.c.c.c.c.c.c.c.c.c.c.c.c.c.# - M X.f.h.3.f.f.f.f.f.f.f.3.h.f.X.N 2 @ c.c.c.c.c.c.c.c.c.c.c.c.c.c.c.c.c.c.c.c.",
"c.c.c.c.c.c.c.c.c.c.c.c.c.c.c.c.c.c.c.c.c.c.c.@ - M X.f.h.f.3.f.f.f.f.f.f.f.h.f.X.N - # c.c.c.c.c.c.c.c.c.c.c.c.c.c.c.c.c.c.c.c.",
"c.c.c.c.c.c.c.c.c.c.c.c.c.c.c.c.c.c.c.c.c.= @ @ = M X.f.h.h.f.f.3.f.f.f.f.f.f.f.X.N ; $ % % c.c.c.c.c.c.c.c.c.c.c.c.c.c.c.c.c.c.",
"c.c.c.c.c.c.c.c.c.c.c.c.c.c.c.c.c.c.c.c.c.% % % 4 F O.f.3.,.2.f.3.f.f.,.3.f.h.f.X.N ; $ % % c.c.c.c.c.c.c.c.c.c.c.c.c.c.c.c.c.c.",
"c.c.c.c.c.c.c.c.c.c.c.c.c.c.c.c.c.c.c.c.% % - 7 m ^ &.>.X.( } :.f.f.f.f.f.f.g.f.X.N ; $ % % c.c.c.c.c.c.c.c.c.c.c.c.c.c.c.c.c.c.",
"c.c.c.c.c.c.c.c.c.c.c.c.c.c.c.c.c.c.c.c.@ % 7 G { :.,.+.P c G  .f.f.f.f.3.f.h.f.X.N - $ c.c.c.c.c.c.c.c.c.c.c.c.c.c.c.c.c.c.c.c.",
"c.c.c.c.c.c.c.c.c.c.c.c.c.c.c.c.c.c.c.c.@ % i ( ,.h.f.O.G 9 N  .f.f.f.f.f.,.g.f.X.N ; @ c.c.c.c.c.c.c.c.c.c.c.c.c.c.c.c.c.c.c.c.",
"c.c.c.c.c.c.c.c.c.c.c.c.c.c.c.c.c.c.c.c.# & i ( 3.h.f.:.( P T +.f.f.f.f.f.f.h.f.X.N ; $ % c.c.c.c.c.c.c.c.c.c.c.c.c.c.c.c.c.c.c.",
"c.c.c.c.c.c.c.c.c.c.c.c.c.c.c.c.c.c.c.c.# % a T 2.h.f.,.>.+.>.,.f.3.f.f.f.f.g.f.X.N - $ % % c.c.c.c.c.c.c.c.c.c.c.c.c.c.c.c.c.c.",
"c.c.c.c.c.c.c.c.c.c.c.c.c.c.c.c.c.c.c.c.@ % i ( f.h.f.h.h.h.f.f.s.s.s.f.f.f.h.g.O.N ; $ % % c.c.c.c.c.c.c.c.c.c.c.c.c.c.c.c.c.c.",
"c.c.c.c.c.c.c.c.c.c.c.c.c.c.c.c.c.c.c.c.+ & i ( 3.h.f.h.h.h.g.d.a.a.a.d.f.3.h.h.X.N ; $ % c.c.c.c.c.c.c.c.c.c.c.c.c.c.c.c.c.c.c.",
"c.c.c.c.c.c.c.c.c.c.c.c.c.c.c.c.c.c.c.c.c.& i T :.3.y.>.,.y.u.t.r.r.t.t.u.y.,.,.} N ; $ c.c.c.c.c.c.c.c.c.c.c.c.c.c.c.c.c.c.c.c.",
"c.c.c.c.c.c.c.c.c.c.c.c.c.c.c.c.c.c.c.c.c.& 9 N I ~ ^ ^ ( / / / Q Q Q Q / ~ ~ Y P i - c.c.c.c.c.c.c.c.c.c.c.c.c.c.c.c.c.c.c.c.c.",
"c.c.c.c.c.c.c.c.c.c.c.c.c.c.c.c.c.c.c.c.c.c.c.6 9 t v b b b V V v V f V V v a 9 6 4 c.c.c.c.c.c.c.c.c.c.c.c.c.c.c.c.c.c.c.c.c.c.",
"c.c.c.c.c.c.c.c.c.c.c.c.c.c.c.c.c.c.c.c.c.c.c.1 1 6 r r r r r r r r y y d v t e q , c.c.c.c.c.c.c.c.c.c.c.c.c.c.c.c.c.c.c.c.c.c.",
"c.c.c.c.c.c.c.c.c.c.c.c.c.c.c.c.c.c.c.c.c.c.c.  k j t 0 0 0 0 0 0 0 0 y D ! W E A s > c.c.c.c.c.c.c.c.c.c.c.c.c.c.c.c.c.c.c.c.c.",
"c.c.c.c.c.c.c.c.c.c.c.c.c.c.c.c.c.c.c.c.c.c.c.o . l h e r y y y y r y B [ :.i.w.7.V - $ c.c.c.c.c.c.c.c.c.c.c.c.c.c.c.c.c.c.c.c.",
"c.c.c.c.c.c.c.c.c.c.c.c.c.c.c.c.c.c.c.c.c.c.c.O o x h r f S J D D D D ! O.j.x.l.0.C > @ c.c.c.c.c.c.c.c.c.c.c.c.c.c.c.c.c.c.c.c.",
"c.c.c.c.c.c.c.c.c.c.c.c.c.c.c.c.c.c.c.c.c.c.c.O o l 8 6 G | O.o.......O.>.f.x.l.0.V > $ c.c.c.c.c.c.c.c.c.c.c.c.c.c.c.c.c.c.c.c.",
"c.c.c.c.c.c.c.c.c.c.c.c.c.c.c.c.c.c.c.c.c.c.c.O X k < 6 R >.h.f.f.f.f.f.3.f.i.q.5.V - $ c.c.c.c.c.c.c.c.c.c.c.c.c.c.c.c.c.c.c.c.",
"c.c.c.c.c.c.c.c.c.c.c.c.c.c.c.c.c.c.c.c.c.c.c.c.. g - 7 Y ,.h.h.h.3.g.3.h.f...E C t > c.c.c.c.c.c.c.c.c.c.c.c.c.c.c.c.c.c.c.c.c.",
"c.c.c.c.c.c.c.c.c.c.c.c.c.c.c.c.c.c.c.c.c.c.c.c.c.* & 7 U >.h.f.3.f.f.g.3.>.~ a , : c.c.c.c.c.c.c.c.c.c.c.c.c.c.c.c.c.c.c.c.c.c.",
"c.c.c.c.c.c.c.c.c.c.c.c.c.c.c.c.c.c.c.c.c.c.c.c.c.c.% 6 G [ O.y.p.j.p.y.o.[ G 6 $ c.c.c.c.c.c.c.c.c.c.c.c.c.c.c.c.c.c.c.c.c.c.c.",
"c.c.c.c.c.c.c.c.c.c.c.c.c.c.c.c.c.c.c.c.c.c.c.c.c.c.c.c.u n R 9.k.z.k.9.R n 9 c.c.c.c.c.c.c.c.c.c.c.c.c.c.c.c.c.c.c.c.c.c.c.c.c.",
"c.c.c.c.c.c.c.c.c.c.c.c.c.c.c.c.c.c.c.c.c.c.c.c.c.c.c.c.% ; f 6.q.e.q.6.v ; % c.c.c.c.c.c.c.c.c.c.c.c.c.c.c.c.c.c.c.c.c.c.c.c.c.",
"c.c.c.c.c.c.c.c.c.c.c.c.c.c.c.c.c.c.c.c.c.c.c.c.c.c.c.c.c.% e Z E 4.K Z r $ c.c.c.c.c.c.c.c.c.c.c.c.c.c.c.c.c.c.c.c.c.c.c.c.c.c.",
"c.c.c.c.c.c.c.c.c.c.c.c.c.c.c.c.c.c.c.c.c.c.c.c.c.c.c.c.c.c.c.q 6 w w q c.c.c.c.c.c.c.c.c.c.c.c.c.c.c.c.c.c.c.c.c.c.c.c.c.c.c.c.",
"c.c.c.c.c.c.c.c.c.c.c.c.c.c.c.c.c.c.c.c.c.c.c.c.c.c.c.c.c.c.c.% % % % % c.c.c.c.c.c.c.c.c.c.c.c.c.c.c.c.c.c.c.c.c.c.c.c.c.c.c.c.",
"c.c.c.c.c.c.c.c.c.c.c.c.c.c.c.c.c.c.c.c.c.c.c.c.c.c.c.c.c.c.c.c.c.c.c.c.c.c.c.c.c.c.c.c.c.c.c.c.c.c.c.c.c.c.c.c.c.c.c.c.c.c.c.c.",
"c.c.c.c.c.c.c.c.c.c.c.c.c.c.c.c.c.c.c.c.c.c.c.c.c.c.c.c.c.c.c.c.c.c.c.c.c.c.c.c.c.c.c.c.c.c.c.c.c.c.c.c.c.c.c.c.c.c.c.c.c.c.c.c.",
"c.c.c.c.c.c.c.c.c.c.c.c.c.c.c.c.c.c.c.c.c.c.c.c.c.c.c.c.c.c.c.c.c.c.c.c.c.c.c.c.c.c.c.c.c.c.c.c.c.c.c.c.c.c.c.c.c.c.c.c.c.c.c.c.",
"c.c.c.c.c.c.c.c.c.c.c.c.c.c.c.c.c.c.c.c.c.c.c.c.c.c.c.c.c.c.c.c.c.c.c.c.c.c.c.c.c.c.c.c.c.c.c.c.c.c.c.c.c.c.c.c.c.c.c.c.c.c.c.c.",
"c.c.c.c.c.c.c.c.c.c.c.c.c.c.c.c.c.c.c.c.c.c.c.c.c.c.c.c.c.c.c.c.c.c.c.c.c.c.c.c.c.c.c.c.c.c.c.c.c.c.c.c.c.c.c.c.c.c.c.c.c.c.c.c.",
"c.c.c.c.c.c.c.c.c.c.c.c.c.c.c.c.c.c.c.c.c.c.c.c.c.c.c.c.c.c.c.c.c.c.c.c.c.c.c.c.c.c.c.c.c.c.c.c.c.c.c.c.c.c.c.c.c.c.c.c.c.c.c.c.",
"c.c.c.c.c.c.c.c.c.c.c.c.c.c.c.c.c.c.c.c.c.c.c.c.c.c.c.c.c.c.c.c.c.c.c.c.c.c.c.c.c.c.c.c.c.c.c.c.c.c.c.c.c.c.c.c.c.c.c.c.c.c.c.c.",
"c.c.c.c.c.c.c.c.c.c.c.c.c.c.c.c.c.c.c.c.c.c.c.c.c.c.c.c.c.c.c.c.c.c.c.c.c.c.c.c.c.c.c.c.c.c.c.c.c.c.c.c.c.c.c.c.c.c.c.c.c.c.c.c.",
"c.c.c.c.c.c.c.c.c.c.c.c.c.c.c.c.c.c.c.c.c.c.c.c.c.c.c.c.c.c.c.c.c.c.c.c.c.c.c.c.c.c.c.c.c.c.c.c.c.c.c.c.c.c.c.c.c.c.c.c.c.c.c.c.",
"c.c.c.c.c.c.c.c.c.c.c.c.c.c.c.c.c.c.c.c.c.c.c.c.c.c.c.c.c.c.c.c.c.c.c.c.c.c.c.c.c.c.c.c.c.c.c.c.c.c.c.c.c.c.c.c.c.c.c.c.c.c.c.c.",
"c.c.c.c.c.c.c.c.c.c.c.c.c.c.c.c.c.c.c.c.c.c.c.c.c.c.c.c.c.c.c.c.c.c.c.c.c.c.c.c.c.c.c.c.c.c.c.c.c.c.c.c.c.c.c.c.c.c.c.c.c.c.c.c.",
"c.c.c.c.c.c.c.c.c.c.c.c.c.c.c.c.c.c.c.c.c.c.c.c.c.c.c.c.c.c.c.c.c.c.c.c.c.c.c.c.c.c.c.c.c.c.c.c.c.c.c.c.c.c.c.c.c.c.c.c.c.c.c.c.",
"c.c.c.c.c.c.c.c.c.c.c.c.c.c.c.c.c.c.c.c.c.c.c.c.c.c.c.c.c.c.c.c.c.c.c.c.c.c.c.c.c.c.c.c.c.c.c.c.c.c.c.c.c.c.c.c.c.c.c.c.c.c.c.c.",
"c.c.c.c.c.c.c.c.c.c.c.c.c.c.c.c.c.c.c.c.c.c.c.c.c.c.c.c.c.c.c.c.c.c.c.c.c.c.c.c.c.c.c.c.c.c.c.c.c.c.c.c.c.c.c.c.c.c.c.c.c.c.c.c."
};
