/* XPM */
static char *result[] = {
/* columns rows colors chars-per-pixel */
"64 64 223 2 ",
"   c #77386A",
".  c #7A3D6D",
"X  c #773E71",
"o  c #566A5C",
"O  c #5D725E",
"+  c #5D7758",
"@  c #647C5D",
"#  c #685964",
"$  c #755768",
"%  c #7A4274",
"&  c #7A4E6C",
"*  c #5C6462",
"=  c #5D6962",
"-  c #566660",
";  c #5E7060",
":  c #6A6B64",
">  c #676564",
",  c #7C696C",
"<  c #786869",
"1  c #697763",
"2  c #767967",
"3  c #727175",
"4  c #803E6A",
"5  c #82416C",
"6  c #8D496D",
"7  c #88496B",
"8  c #944D6C",
"9  c #88576C",
"0  c #9A536E",
"q  c #9A5C6E",
"w  c #814572",
"e  c #8D4C71",
"r  c #834B77",
"t  c #89557A",
"y  c #945373",
"u  c #9A5572",
"i  c #9D5974",
"p  c #955B7B",
"a  c #9A5C7A",
"s  c #904E71",
"d  c #A35A6F",
"f  c #A0576E",
"g  c #A45C71",
"h  c #A55F75",
"j  c #84676C",
"k  c #93626E",
"l  c #8C6A74",
"z  c #926D72",
"x  c #9B6377",
"c  c #977978",
"v  c #887872",
"b  c #AB6375",
"n  c #A4637B",
"m  c #AD697B",
"M  c #A86778",
"N  c #B46C7A",
"B  c #B36A78",
"V  c #A67279",
"C  c #A97279",
"Z  c #B6737C",
"A  c #BD757E",
"S  c #C0767F",
"D  c #C0787F",
"F  c #66815D",
"G  c #6C885C",
"H  c #728C5E",
"J  c #73925C",
"K  c #7A965E",
"L  c #7D9C5D",
"P  c #769A57",
"I  c #6F9257",
"U  c #7EA35B",
"Y  c #7CA455",
"T  c #778864",
"R  c #799565",
"E  c #758674",
"W  c #728969",
"Q  c #809E5F",
"!  c #82A45D",
"~  c #86AA5B",
"^  c #8AAC5D",
"/  c #84A956",
"(  c #8EB25C",
")  c #92B55E",
"_  c #96B95F",
"`  c #99BA5F",
"'  c #848B6B",
"]  c #829C6B",
"[  c #988977",
"{  c #869C77",
"}  c #8A8173",
"|  c #8AAE63",
" . c #85A866",
".. c #93B461",
"X. c #9CBC61",
"o. c #96B767",
"O. c #8BA677",
"+. c #8EB072",
"@. c #97B777",
"#. c #92AA7F",
"$. c #A0BF62",
"%. c #A28E7D",
"&. c #A1C062",
"*. c #845582",
"=. c #8D5B83",
"-. c #8B5F88",
";. c #945E80",
":. c #8D6189",
">. c #996887",
",. c #9A7596",
"<. c #9B7798",
"1. c #9C7899",
"2. c #8C7289",
"3. c #A36B84",
"4. c #A46B84",
"5. c #A8768C",
"6. c #BC7581",
"7. c #BD7983",
"8. c #BB7D8A",
"9. c #B47785",
"0. c #A57B96",
"q. c #B4778A",
"w. c #C37C83",
"e. c #C17780",
"r. c #7B8380",
"t. c #949D95",
"y. c #908B89",
"u. c #B6818E",
"i. c #B78688",
"p. c #A8839A",
"a. c #B78897",
"s. c #B3918E",
"d. c #96A88A",
"f. c #9DB884",
"g. c #99AA90",
"h. c #A2BD85",
"j. c #A4B694",
"k. c #A98AA4",
"l. c #AC93A7",
"z. c #B895A5",
"x. c #B797A8",
"c. c #B69DB1",
"v. c #B48FA0",
"b. c #ACB8A4",
"n. c #B5BBAC",
"m. c #BBA4B4",
"M. c #BEA9B8",
"N. c #B4ACAB",
"B. c #C5838B",
"V. c #C9858A",
"C. c #CD8A8E",
"Z. c #C68388",
"A. c #CD8D91",
"S. c #C18992",
"D. c #D08E91",
"F. c #C89396",
"G. c #D39395",
"H. c #D79899",
"J. c #DA9B9B",
"K. c #D79798",
"L. c #C0938D",
"P. c #E19F9E",
"I. c #C39CA4",
"U. c #C19CAB",
"Y. c #C7A0A6",
"T. c #CAA8AC",
"R. c #C5AAB4",
"E. c #C5B2BD",
"W. c #CDB5BC",
"Q. c #CFB8BC",
"!. c #D4BCBE",
"~. c #D2B4B5",
"^. c #E1A09F",
"/. c #A7C18C",
"(. c #AAC392",
"). c #ABC495",
"_. c #B2C999",
"`. c #BACBA8",
"'. c #BBC6B2",
"]. c #BED1A8",
"[. c #C1D2AE",
"{. c #C4C9B9",
"}. c #D7C0BF",
"|. c #C9D6B8",
" X c #D0DCBE",
".X c #CBBBC3",
"XX c #D1BCC1",
"oX c #CFC2C6",
"OX c #CACAC5",
"+X c #D2C2C6",
"@X c #D1C3C8",
"#X c #D6CACD",
"$X c #DBCCCB",
"%X c #DAC5C4",
"&X c #CED5C6",
"*X c #D5DCCA",
"=X c #D6D8CA",
"-X c #DDD4D2",
";X c #DBDBD3",
":X c #DCCFD0",
">X c #E1D2CD",
",X c #E4DAD5",
"<X c #E4DFDA",
"1X c #E4D9D4",
"2X c #DAE3CA",
"3X c #D7E2C7",
"4X c #DEE4D2",
"5X c #E6E1DA",
"6X c #EAE4DC",
"7X c #E6E9DB",
"8X c #E9EDDC",
"9X c #E2E8D5",
"0X c #EEEDE2",
"qX c #EEE6E2",
"wX c #F0EEE2",
"eX c #EEF3E2",
"rX c #F2F2E6",
"tX c #F4F5E9",
"yX c #F6F8EA",
"uX c #FAFCEE",
"iX c #F0F8E4",
"pX c #FEFDF1",
"aX c None",
/* pixels */
"aXaXaXaXaXaXaXaXaXaXaXaXaXaXaXaXaXaXaXaXaXaXaXaXaXaXaXaXaXaXaXaXaXaXuXuXyXuXuXyXuXuXuXpXuXuXuXaXaXaXaXaXaXaXaXaXaXaXaXaXaXaXaXaX",
"aXaXaXaXaXaXaXaXaXaXaXaXaXaXaXaXaXaXaXaXaXaXaXaXaXaXaXaXaXaXaXaXaXtXtXyXrXrXtXtXiXyXrXrXtXtXtXaXaXaXaXaXaXaXaXaXaXaXaXaXaXaXaXaX",
"aXaXaXaXaXaXaXaXaXaXaXaXaXaXaXaXaXaXaXaXaXaXaXaXaXaXaXaXaXaXaXaX8X8X8X8X8X8X6X8X8X8X7X7XqX7X7X7XaXaXaXaXaXaXaXaXaXaXaXaXaXaXaXaX",
"aXaXaXaXaXaXaXaXaXaXaXaXaXaXaXaXaXaXaXaXaXaXaXaXaXaXaXaXaXaXaXaX4X2X2X2X3X2X2X2X3X3X3X3X=X*X*X4X4XaXaXaXaXaXaXaXaXaXaXaXaXaXaXaX",
"aXaXaXaXaXaXaXaXaXaXaXaXaXaXaXaXaXaXaXaXaXaXaXaXaXaXaXaXaXaX8X2X3X|.|.].[.[.[.[.].].'.'.'.'.{.|.*X7XaXaXaXaXaXaXaXaXaXaXaXaXaXaX",
"aXaXaXaXaXaXaXaXaXaXaXaXaXaXaXaXaXaXaXaXaXaXaXaXaXaXaXaXaXyX8X3X].`.).)././.j.(.(.j.j.j.j.j.b.'.&X4XrXaXaXaXaXaXaXaXaXaXaXaXaXaX",
"aXaXaXaXaXaXaXaXaXaXaXaXaXaXaXaXaXaXaXaXaXaXaXaXaXaXaXaXuXeX9X X].(.@.+.+.+.+.@.+.+.O.O.{ { g.b.{.2X0XtXaXaXaXaXaXaXaXaXaXaXaXaX",
"aXaXaXaXaXaXaXaXaXaXaXaXaXaXaXaXaXaXaXaXaXaXaXaXaXaXaXyXeX8X2X|._.f.+.| U U ! ! U R J R W R O.j.'.&X7XeXtXaXaXaXaXaXaXaXaXaXaXaX",
"aXaXaXaXaXaXaXaXaXaXaXaXaXaXaXaXaXaXaXaXaXaXaXaXaXaXaX7X9X2X|.].).@.| Y Y Y Y Y Y Y P I H K ] d.b.{.*X4X9X7XaXaXaXaXaXaXaXaXaXaX",
"aXaXaXaXaXaXaXaXaXaXaXaXaXaXaXaXaXaXaXaXaXaXaXaXaXaX4X3X X[.]._.h.@.| ~ / / / / / Y Y P I K ] d.j.`.'.|.&X*X9XaXaXaXaXaXaXaXaXaX",
"aXaXaXaXaXaXaXaXaXaXaXaXaXaXaXaXaXaXaXaXaXaXaXaXyX9X3X].`._.(.h.@.o._ ( ( ( ( ( ( / / Y Q Q  . .#.f.j.j.'.|.*X8XaXaXaXaXaXaXaXaX",
"aXaXaXaXaXaXaXaXaXaXaXaXaXaXaXaXaXaXaXaXaXaXaXuXiX9X X`./.f.@.o.o.o._ _ ` ` ` _ ` _ ( / ~ ^ ! ] ] { d.g.b.'.*X7XtXuXaXaXaXaXaXaX",
"aXaXaXaXaXaXaXaXaXaXaXaXaXaXaXaXaXaXaXaXaXaXyXiX8X3X[._.f.+.| ( _ o.X.$.&.&.&.&.` ` ` ..^ ^ ! P R R W { j.'.&X7XrXuXaXaXaXaXaXaX",
"aXaXaXaXaXaXaXaXaXaXaXaXaXaXaXaXaXaXaXaXaX8X8X9X2X X]./.@.| Y ~ ( _ X.$.&.&.&.&.&.` ..^ ^ Q P I G G W R g.'.&X7XtXuXaXaXaXaXaXaX",
"aXaXaXaXaXaXaXaXaXaXaXaXaXaXaXaXaXaXaXaXaX9X3X X|.]._./.o.| / / ( _ _ $.&.&.&.X.` ` ( ^ Q K H G F + 1 E t.n.&X7XrXuXpXaXaXaXaXaX",
"aXaXaXaXaXaXaXaXaXaXaXaXaXaXaXaXaXaXaXiX9X3X|.[._.(./.o..._ ( ( ) _ _ X.X.X.X.X.` ) | Q K H F @ + + ; E d.n.&X6XtXuXpXaXaXaXaXaX",
"aXaXaXaXaXaXaXaXaXaXaXaXaXaXaXaXaXaXuXeX2X X`./.f.@.@.o.o.o._ _ _ _ ) ) .._ ` ` ..^ L J G F O o o o o 1 t.n.OX7XyXuXaXaXaXaXaXaX",
"aXaXaXaXaXaXaXaXaXaXaXaXaXaXaXaXaXyXrX7X3X[._.@.+. .....o.X.X.X._ ..) ..) ..( ( ^ Q K T 1 ; - - o o ; E t.n.&X7XtXuXaXaXaXaXaXaX",
"aXaXaXaXaXaXaXaXaXaXaXaXaXaXaXaXqXqX<X;X{.`.h.O.U U / ( _ X.$.X._ _ ( ( ^ ^ ^ ^ Q K H @ : = * * ; 3 3 r.t.n.&X7XtXpXaXaXaXaXaXaX",
"aXaXaXaXaXaXaXaXaXaXaXaXaXaXaXaX1X:X%X+X~.j.d.] P Y Y / _ X.X.X.` ) ) ^ ^ ^ ! Q Q H 1 : > > > 3 r.r.r.g.b.'.;X7XrXaXaXaXaXaXaXaX",
"aXaXaXaXaXaXaXaXaXaXaXaXaXaX0X1X%XW.R.N.s.t.{ T J I Y / ( _ ` ` _ _ ( ( ~ Q K J G 2 : > > $ 3 v y.t.N.b.n.OX;X0XaXaXaXaXaXaXaXaX",
"aXaXaXaXaXaXaXaXaXaXaXaXaXyXqX>X.XR.a.p.y.} v H G I Y Y ( _ ` _ _ _ ( ~ / K H G 1 : > $ $ 9 2.,.l.n.'.OX&X;XaXaXaXaXaXaXaXaXaXaX",
"aXaXaXaXaXaXaXaXaXaXaXaXyXtX5X$XR.z.0.x v j 2 1 G I P L ~ ( ) ) _ ( (  .Q J G @ + # # $ $ t >.p.m.OX=X4X7X7XaXaXaXaXaXaXaXaXaXaX",
"aXaXaXaXaXaXaXaXaXaXaXrXwX6X1X+XR.a.3.x 9 j j 2 T T K L  .~ ^ ^ ^ ^ ~ ! K G @ o * # # $ & p 4.a.M.oX-X5X7XeXaXaXaXaXaXaXaXaXaXaX",
"aXaXaXaXaXaXaXaXaXaXaX<X1X>X}.~.I.8.5.;.k l l } ' ' ' Q ] L L Q U U R L J F ; ; - # # & 7 8 3.0.U.W.%X:X,X5XaXaXaXaXaXaXaXaXaXaX",
"aXaXaXaXaXaXaXaXaXwX1X>X%X~.T.Y.a.8.q.4.M c V [ [ ' ' ' R J H I J J J G F + ; - - # # & 9 u 3.q.a.U.R.XX%X>X5XaXaXaXaXaXaXaXaXaX",
"aXaXaXaXaXaXaXaXyXqX>X!.R.I.F.S.a.8.8.8.7.i.i.i.%.%.[ ' W 1 F F @ F @ @ F ; o o * # $ $ 9 u n 4.5.0.v.U.R.+X,XrXpXaXaXaXaXaXaXaX",
"aXaXaXaXaXaXaXuXrX6X%X~.F.a.q.q.w.w.S.C.F.A.F.F.L.s.[ } 2 1 O O O O ; ; o o o - o > < 9 q 0 i i h 3.4.0.x.XX:XqXyXpXaXaXaXaXaXaX",
"aXaXaXaXaXaXtXwX6X1X%XT.a.9.4.Z q.V.A.K.K.J.J.K.K.L.i.v 3 : > - = = = = - - - = * > 9 9 u f f f y y p 3.a.R.%X,XqXtXaXaXaXaXaXaX",
"aXaXaXaXaXaX6X1X>X%X~.U.i.9.N 6.w.V.G.K.J.P.P.J.H.A.i.c v < : > > > : : = 3 > : < < j k i f f 8 8 8 y ;.0.z.E.+X:X;X<XaXaXaXaXaX",
"aXaXaXaXaX>X$X%X}.~.T.F.S.8.6.7.w.A.K.J.P.P.P.P.H.F.i.%.c l , < , , , , , , , , j z k k d d f 0 8 8 y h 4.p.x.m..X.X@X-XaXaXaXaX",
"aXaXaXwX<X$X!.T.J.F.L.S.B.w.w.V.A.G.K.J.P.P.P.J.J.G.L.9.c z z l l l z z z z z z z z k M q d f f f 8 y p >.>.1.k.k.c..X#XqXtXaXaX",
"aXaXyXwX,X%X~.F.8.w.q.w.w.S.A.F.G.K.K.J.J.J.J.J.H.G.V.i.Z C V V C C C V V C V C C b b g g g d d f q 0 q p p =.:.<.l.M.@X<XrXyXaX",
"aXuXyXwX<X%XY.S.q.4.6.q.w.A.K.H.K.J.J.H.J.J.J.K.K.G.C.Z.w.Z Z Z Z Z Z Z Z Z Z Z Z B C b b g g d d d d 0 6 e w r -.0.m.@X<XrXuXaX",
"aXuXyXwX1X!.T.u.4.h 6.6.A.K.H.J.J.J.J.J.J.H.K.K.G.D.C.Z.w.A A A A A A S S S A A N N B B g g g d d g f 0 6 5   % *.,.c.oX<XeXuXpX",
"aXuXyXrX1X}.I.u.m b 4.e.w.K.H.J.J.P.J.J.K.K.G.G.C.C.V.Z.w.w.S S A S S S S S S S S S B b b d d g g g d 0 6 .   X *.,.c..X<XeXuXpX",
"aXuXyXwX,X}.Y.u.m b B S w.J.P.P.P.P.J.H.K.G.D.C.V.V.Z.e.e.D S S S S S S S S S S S N B b b d d b g d i 0 6 4   X *.,.c..X<XrXyXpX",
"aXuXyXwX,X!.Y.u.4.b b A w.K.J.P.P.J.J.H.G.G.C.Z.Z.e.e.D D D S S A A S e.S S S A S N B b b d d d g g g 0 6 4   X *.,.c.@X<XrXuXpX",
"aXuXyXwX,X%XY.8.4.h B 6.w.J.K.J.P.J.J.H.G.C.V.Z.w.e.D A A A A A A A A A A S A A S B B b d d g d d d g 0 6 5 . % *.,.c.@X<XeXuXuX",
"aXuXyXwX,X+XY.8.m h B 6.w.G.K.P.J.H.K.G.D.V.Z.w.A A A A A A A A A A A A A A S A S N B b b d g d g g g 0 6 4 . % *.,.c.@X<XeXuXpX",
"aXuXtXwX,X+XI.8.3.g b 6.w.G.K.K.H.K.G.C.C.V.w.D A A A Z A A A A A A A S S A A A A Z B b g g g d g g q 0 6 5 . % *.,.c..X5XrXyXpX",
"aXuXyXeX,X!.I.0.3.f h 6.w.G.K.K.K.D.C.V.Z.w.w.D A A A A A A A A A A A A A A S A A N B b b g d g g g f 0 6 % . % *.<.c.@X<XrXuXpX",
"aXuXyX0X,X!.x.5.3.i f 6.w.K.K.K.D.C.V.Z.w.w.D D A A A A A S A A A A A A A S A A A N B b g g g g g g d 0 6 5 . % *.<.c.@X<XeXuXuX",
"aXuXyX0X;X!.I.0.;.u ;.6.8.I.K.K.D.V.Z.D D A D A A A A A A A A A A A A A A A S A A Z N b b g d d g g d 0 6 5 . % *.<.c.@X<XeXuXpX",
"aXuXyX0X,XXXx.5.;.y h 4.w.C.G.D.C.V.w.A A A A A 7.A A A A D A A 6.S A A A A A A Z B B b d d d g d d d 0 6 5 . % *.,.c.oX<XtXyXpX",
"aXuXyXwX,XQ.x.5.p y u 3.7.V.D.D.V.Z.D A A A A A A A S A A A A A A A A A A A A Z B B b b g g d d g g f u 6 4   % *.,.c.@X<XeXuXpX",
"aXuXyX0X1X.Xx.,.p e y h 6.w.V.V.Z.D D A A Z A A A A A A A A A A D e.A A A Z N N B B h b g g g d g g g 0 6 .   X *.,.c..X5XrXuXuX",
"aXuXyX0X-X!.x.4.p e y g 9.w.Z.Z.Z.D A A A A A A A A A A A A A A A A A A Z N B b h h h g g g g b g g f 0 6 .   % % ,.c.@X<XeXuXuX",
"aXuXuX0X1XXXx.5.p y y h m 6.e.w.e.e.6.A A A A A A A A A A A A S A A A A A N b b b g g g d g g d g g g 0 6 4 4 X *.,.c.@X<XtXuXpX",
"aXuXyXwX1XXXx.p.>.a i h m N A A S e.A A A A A A A A A A A A A A A A A A B b b b d g g d g g d d g d 0 u s w r *.:.1.m..X<XtXuXaX",
"aXaXyXwX,X+XR.v.0.5.4.4.m B m B N N A A S S A A A A D A A A A A A N N N B b b g d g d g g d f f 0 0 u y p =.=.:.1.l.M.@X5X0XyXaX",
"aXaXaX0X,X#XW.R.z.a.a.5.4.n n b B B A A e.S D D D D D e.S A A A A N B B B b b g g d g d g g f 0 8 6 e y ;.>.0.k.x.c..X#X5XtXaXaX",
"aXaXaXaXaX>X$XXXW.R.z.a.4.h i i h B 6.S S S e.e.D D S e.A D A A N B B b b b g g g g g b g f i 8 6 5 w t >.0.l.c..X.X#X-XaXaXaXaX",
"aXaXaXaXaXaX<X,X:X}.~.z.5.3.u u g m N e.S S e.e.A A A A A A A N B B b b g g g g d g g g g f 0 6 5 5 w =.,.x..X@X:X<X5XaXaXaXaXaX",
"aXaXaXaXaXaXtXeX6X>XXXc.p.3.p i h n 6.N A N S N A Z A A A A N B b b d d g f f q d d d d f i y e 7 w r :.0.c..X;XqXeXaXaXaXaXaXaX",
"aXaXaXaXaXaXaXuXrX7X$XR.a.0.>.3.h 3.h m m B B 4.m m m B m m M h g q 0 0 8 0 u 0 0 0 0 0 0 u y y t =.:.1.l..X:XqXyXuXaXaXaXaXaXaX",
"aXaXaXaXaXaXaXaXyX6X:XQ.R.z.p.5.5.3.;.h f i i i i i a h i i i y y 8 8 6 7 6 6 6 6 6 6 6 6 6 p ;.>.,.1.k.M..X;X0XuXaXaXaXaXaXaXaX",
"aXaXaXaXaXaXaXaXaXaX1X$X!.E.R.z.0.3.;.y e w e *.e e e e e e e e 7 5 w 4 4 4 4 4 4 . 4 4 4 w t >.1.x.m..X.X#X<XaXaXaXaXaXaXaXaXaX",
"aXaXaXaXaXaXaXaXaXaXaX<X1X$X+XR.z.0.*.X 4 4 4 4 4 w w w % w % % . . X .   X X . X X     . r =.0.x..X@X:X-X<XaXaXaXaXaXaXaXaXaXaX",
"aXaXaXaXaXaXaXaXaXaXaXtX0X6X-X!.c.1.:.*.X X % % % % % % % % % % % % % % % % % % X X X X % r :.k.m..X;XqXrXaXaXaXaXaXaXaXaXaXaXaX",
"aXaXaXaXaXaXaXaXaXaXaXaXuXtX5X@XM.k.,.*.*.*.*.*.*.*.*.*.*.*.*.*.*.*.*.*.*.*.*.*.*.*.*.*.*.:.,.l..X-XqXyXpXaXaXaXaXaXaXaXaXaXaXaX",
"aXaXaXaXaXaXaXaXaXaXaXaXaXuX7X:XE.c.k.<.,.,.,.1.1.1.1.1.<.<.1.1.1.1.1.1.1.1.1.0.1.1.<.<.1.1.k.m..X-XrXuXaXaXaXaXaXaXaXaXaXaXaXaX",
"aXaXaXaXaXaXaXaXaXaXaXaXaXaX0X;X.XE.M.c.c.c.c.c.c.c.c.c.c.c.c.c.c.c.c.c.c.m.c.c.c.c.c.c.m.m.M..X#X<XaXaXaXaXaXaXaXaXaXaXaXaXaXaX",
"aXaXaXaXaXaXaXaXaXaXaXaXaXaXaXaX-X#X@X@X.X.X#X.X#X.X@X@X@X@X@X@X@X@X@X@X@X@X@X@X@X@X.X@X@X@X@X:X-XaXaXaXaXaXaXaXaXaXaXaXaXaXaXaX"
};
