/* XPM */
static char *result[] = {
/* columns rows colors chars-per-pixel */
"64 64 177 2 ",
"   c #78356A",
".  c #7B3A6D",
"X  c #783C72",
"o  c #556A5C",
"O  c #5D765B",
"+  c #647D5D",
"@  c #685864",
"#  c #7B4075",
"$  c #775469",
"%  c #556660",
"&  c #5D6762",
"*  c #5E7060",
"=  c #676564",
"-  c #6A6B64",
";  c #7C696B",
":  c #697863",
">  c #737276",
",  c #777A67",
"<  c #823D6B",
"1  c #8D476D",
"2  c #954C6C",
"3  c #89566C",
"4  c #9B526E",
"5  c #9B5C6E",
"6  c #8E4B72",
"7  c #834574",
"8  c #955274",
"9  c #9E5875",
"0  c #965B7C",
"q  c #9B5574",
"w  c #8B5379",
"e  c #A1566E",
"r  c #A55C72",
"t  c #94626E",
"y  c #8D6A75",
"u  c #946B74",
"i  c #8C7372",
"p  c #AC6376",
"a  c #AE697C",
"s  c #A7657B",
"d  c #B46B7A",
"f  c #A9737A",
"g  c #B7747D",
"h  c #BE767F",
"j  c #69865C",
"k  c #738D5E",
"l  c #6F9356",
"z  c #7B975E",
"x  c #78985B",
"c  c #7DA554",
"v  c #7FA45B",
"b  c #768A67",
"n  c #799269",
"m  c #819F5F",
"M  c #85AA55",
"N  c #8BAE5D",
"B  c #85A95C",
"V  c #8FB35C",
"C  c #93B65E",
"Z  c #97BA5F",
"A  c #9ABB5F",
"S  c #858C6B",
"D  c #839D6B",
"F  c #8E9077",
"G  c #A38F7E",
"H  c #89AD64",
"J  c #94B561",
"K  c #97B867",
"L  c #9DBD61",
"P  c #8FB173",
"I  c #95B378",
"U  c #A2C162",
"Y  c #ADC867",
"T  c #ABC766",
"R  c #B3CC6A",
"E  c #B8CF6C",
"W  c #BBD26D",
"Q  c #BFD470",
"!  c #C1D570",
"~  c #C6D878",
"^  c #C0D46E",
"/  c #855483",
"(  c #8E5C85",
")  c #955E81",
"_  c #8E618A",
"`  c #9B7697",
"'  c #9D799A",
"]  c #996988",
"[  c #A56B85",
"{  c #A9778D",
"}  c #BD7682",
"|  c #B5788B",
" . c #BB7C88",
".. c #A67C97",
"X. c #C17780",
"o. c #C37A82",
"O. c #7C8481",
"+. c #959E96",
"@. c #918C8A",
"#. c #B88789",
"$. c #B7828F",
"%. c #A9849B",
"&. c #B78A97",
"*. c #9EB985",
"=. c #9AAC91",
"-. c #96AA89",
";. c #A5B795",
":. c #A3BE86",
">. c #AA8BA5",
",. c #AD94A8",
"<. c #B996A6",
"1. c #B898A9",
"2. c #B590A1",
"3. c #B79EB2",
"4. c #ADB9A5",
"5. c #B6BCAE",
"6. c #BFAAB9",
"7. c #BCA5B5",
"8. c #B5AEAD",
"9. c #C78489",
"0. c #CA868B",
"q. c #CE8B8F",
"w. c #C1948E",
"e. c #CE8E92",
"r. c #C28A93",
"t. c #D18F92",
"y. c #C99497",
"u. c #D49496",
"i. c #D99A9A",
"p. c #E2A09F",
"a. c #C39DA8",
"s. c #C8A1A7",
"d. c #CBA9AE",
"f. c #C6ACB5",
"g. c #CAB5BE",
"h. c #D4BCBF",
"j. c #D3B5B6",
"k. c #A8C28D",
"l. c #ABC494",
"z. c #B3CA9A",
"x. c #BBCCA9",
"c. c #BFD2A9",
"v. c #BCC7B3",
"b. c #C2D3AF",
"n. c #D1DDBF",
"m. c #C8D3B9",
"M. c #CCBCC4",
"N. c #D2BDC2",
"B. c #D2C3C7",
"V. c #DAC5C4",
"C. c #D2C4C9",
"Z. c #D7CBCE",
"A. c #DCCDCC",
"S. c #CFD6C7",
"D. c #D6DCCB",
"F. c #DDD2D2",
"G. c #DCDCD4",
"H. c #CBCBC6",
"J. c #E2D3CE",
"K. c #E5DBD6",
"L. c #D9E3C9",
"P. c #DFE5D3",
"I. c #E3E9D6",
"U. c #E6E1DB",
"Y. c #E7EADC",
"T. c #EAEEDD",
"R. c #EBE5DD",
"E. c #EFE7E3",
"W. c #EFEEE3",
"Q. c #F0EFE3",
"!. c #EFF3E3",
"~. c #F2F2E7",
"^. c #F4F5EA",
"/. c #F6F8EB",
"(. c #FAFCEF",
"). c #F0F8E5",
"_. c #FEFDF1",
/* pixels */
"Q W Q Q ! Q W W W ! ! ! ! ! ! ! ! ! ! ! ! ! ! ! ! ! ! ! ! ! ! ! ! ! (.(./.(.(./.(.(.(._.(.(.(.Q Q Q Q ~ ! ! ! ! ! ! ! ! ! ! ! ! ",
"E R E Q Q W E E W Q ! ! ! ! ! ! ^ ! ! ! ! ! ! ! ! ! ! ! ! ! ! ! ! /./.(.~.~.^.^.).).).~.^.^.^.W Q Q Q Q ! ! ! ! ! ! ! ! ! ! ! ! ",
"Y T R W W E Y Y R W ! ! ! ! ! ! ! ! ! ! ! ! ! ! ! ! ! ! ! ! ! ! T.T.T.T.T.T.R.T.T.T.Y.Y.E.E.P.E.! ! ! ! ! ! ! ! ! ! ! ! ! ! ! ! ",
"R Y Y E E E Y T E W ! ! ! ! ! ! ! ! ! ! ! ! ! ! ! ! ! ! ! ! ! ! P.L.L.L.L.L.L.L.L.L.L.L.D.D.L.P.P.! ! ! ! ! ! ! ! ! ! ! ! ! ! ! ",
"E E R R Y R R E W ! ! ! ! ! ! ! ! ! ! ! ! ! ! ! ! ! ! ! ! ! T.L.L.m.m.b.b.b.b.b.c.c.v.v.v.v.m.m.L.Y.Q ! ! ! ! ! ! ! ! ! ! ! ! ! ",
"W W E Y T Y E Q W ! ! ! ! ! ! ! ! ! ! ! ! ! ! ! ! ! ! ! ! /.T.L.c.c.l.l.k.k.;.l.l.;.;.;.;.;.4.5.S.P.~.Q ! ! ! ! ! ! ! ! ! ! ! ! ",
"! ! W Y Y E W ! ! ! ! ! ! ! ! ! ! ! ! ! ! ! ! ! ! ! ! ! (.!.I.n.c.k.I P P P P I P P P P F F =.4.m.L.W.^.! ! ! ! ! ! ! ! ! ! ! ! ",
"! ! W E E W Q ! ! ! ! ! ! ! ! ! ! ! ! ! ! ! ! ! ! ! ! /.!.T.L.m.z.*.P H v B B B v n j n n n P ;.v.S.Y.!.^.! ! ! ! ! ! ! ! ! ! ! ",
"! ! ! ! ! ! ! ! ! ! ! ! ! ! ! ! ! ! ! ! ! ! ! ! ! ! W I.I.L.b.c.l.I V c c c c c c c c l k z D -.4.v.L.P.P.E.Q Q ! ! ! ! ! ! ! ! ",
"! ! ! ! ! ! ! ! ! ! ! ! ! ! ! ! ! ! ! ! ! ! ! ! ! ! I.L.n.b.b.z.k.I H N M M M M M c c x l z D -.;.x.v.m.S.L.I.E W Q ! ! ! ! ! ! ",
"! ! ! ! ! ! ! ! ! ! ! ! ! ! ! ! ! ! ! ! ! ! ! ! ^.I.L.c.c.z.l.k.I K Z V V V V V V M c c B m H H -.:.;.;.v.m.D.Y.E W Q ! ! ! ! ! ",
"! ! ! ! ! ! ! ! ! ! ! ! ! ! ! ! ! ! ! ! ! ! ! (.).I.L.c.k.I I K L K Z Z A A A Z A Z V M B B v D D D -.=.4.v.D.Y.^.(.! ! ! ! ! ! ",
"! ! ! ! ! ! ! ! ! ! ! ! ! ! ! ! ! ! ! ! ! ^ /.).T.L.b.z.:.P H V Z K L U U U U U A A Z J N N B x n n n n ;.v.S.R.~.(.! ! ! ! ! ! ",
"! ! ! ! ! ! ! ! ! ! ! ! ! ! ! ! ! ! ! ^ ! T.T.I.L.n.c.k.I H c N V Z L U U U U U U A J N B B x l k j n n =.v.S.R.^.(.! ! ! ! ! ! ",
"! ! ! ! ! ! ! ! ! ! ! ! ! ! ! ! ! ! ! ! ! I.L.n.m.c.z.k.K H M M V Z Z U U U U L A A V N D z k j j O j O.=.5.S.Y.~.(._.! ! ! ! ! ",
"! ! ! ! ! ! ! ! ! ! ! ! ! ! ! ! ! ! ! ).I.L.m.b.z.l.k.K J Z V V C Z Z L L L L L A C H B x k j + O * * b -.5.S.R.^.(._.! ! ! ! ! ",
"! ! ! ! ! ! ! ! ! ! ! ! ! ! ! ! ! ! _.!.L.S.x.k.*.I I K K K Z Z Z Z C C J Z A Z J B z k j j * % o o o : +.5.H.Y.^.(.! ! ! ! ! ! ",
"! ! ! ! ! ! ! ! ! ! ! ! ! ! ! ! ! /.~.Y.L.b.z.I P H J J K U L L Z C C Z C J V C N H x b : * % % o o * n +.5.S.Y.^.(.! ! ! ! ! ! ",
"! ! ! ! ! ! ! ! ! ! ! ! ! ! ! ! E.Q.K.G.m.x.k.P v v M V Z U U L Z Z C N B N B N z z k j - * % & * > > O.+.5.S.Y.^._.Q ! ! ! ! ! ",
"! ! ! ! ! ! ! ! ! ! ! ! ! ! ! ! K.A.V.C.j.;.-.D x c c M Z A L L Z C Z N N N v H B k : - = = = > O.O.O.=.4.v.G.E.).Q Q ! ! ! ! ! ",
"! ! ! ! ! ! ! ! ! ! ! ! ! ! Q.K.V.g.f.6.#.+.F b x l c M V Z A A Z Z V V V z z l j , - = = $ > i @.+.8.4.5.H.P.W.! ! ! ! ! ! ! ! ",
"! ! ! ! ! ! ! ! ! ! ! ! ! /.E.J.N.f.&...@.S i k j l c c V Z A J Z Z C B M z k k : - = $ $ 3 ] ' ,.5.v.H.S.G.Q Q ! ! ! ! ! ! ! ! ",
"! ! ! ! ! ! ! ! ! ! ! ! /.^.U.A.f.1...u i ; , : j l c z N V C C Z V N H m k j + O @ @ $ $ w ] ..7.H.G.P.Y.Y.Q Q ! ! ! ! ! ! ! ! ",
"! ! ! ! ! ! ! ! ! ! ! ~.Q.R.K.B.f.&.[ u 3 y ; , b b x x H N N N N N B B z j j o o @ @ $ $ ) [ &.6.H.F.U.Y.W.Q Q ! ! ! ! ! ! ! ! ",
"! ! ! ! ! ! ! ! ! ! ! U.K.J.V.j.a.o...) t y y S S S S z H z z v B x n z x j O * o @ @ $ 1 2 [ ..a.M.V.F.K.U.! ! ! ! Q ! ! ! ! ! ",
"! ! ! ! ! ! ! ! ! Q.K.J.V.j.d.a.&. .| [ a i f G G S S S n k b l k x x j j O * % o @ @ # 3 4 [ | &.a.f.N.V.J.U.Q ! ! ! ! ! ! ! ! ",
"! ! ! ! ! ! ! ! ^.Q.J.h.f.a.y.r.&. . . .} #.#.$.G G F S b : j j + j + + + * o o o @ $ @ 3 4 s [ { ..2.a.f.C.K.~._.! ! ! ! ! ! ! ",
"! ! ! ! ! ! ! (.~.R.V.j.y.&.| | o.o.r.t.y.e.y.y.#.&.G i , : O * O O & * o o o % o = ; 3 5 4 9 9 r [ [ ..1.N.F.E./._.! ! ! ! ! ! ",
"! ! ! ! ! ! ^.Q.R.K.V.d.&.| [ } | e.e.i.i.i.p.i.i.w.#.i > - = % & & & & % % % & o @ 3 3 q e e e 8 8 ) [ &.f.V.K.E.^.! ! ! ! ! ! ",
"! ! ! ! ! ! R.K.J.V.j.a.#.| d } o.q.u.i.i.p.p.i.i.u.#.F i ; - = = = - : & > = - ; ; y t e e e 2 8 2 8 ) ..<.M.N.F.G.U.! ! Q ! ! ",
"! ! ! ! ! J.A.V.V.j.d.y.r. .X.} o.e.i.i.p.p.p.p.i.y.#.G i y ; ; ; ; ; ; ; ; ; ; y i t 5 r e e 4 2 2 8 r [ %.1.7.M.M.C.F.! Q Q ! ",
"! ! ! Q.U.A.h.d.i.y.w.r.9.o.o.q.e.u.i.i.p.p.p.i.i.u.#.#.f i u i y y u u u u u u u u t s 9 r e e e 2 8 ) ] ] ' >.>.3.M.Z.E.^.~ ! ",
"! ! /.Q.K.V.j.y. .o.| o.o.r.e.a.u.i.i.i.i.p.i.i.i.u.0.#.g f f f f f f f f f f f f p p r r r e r e e 4 5 0 0 0 _ ' ,.7.C.P.~./.~ ",
"! (./.Q.U.V.s.r.| [ } | o.e.i.i.i.p.i.i.i.i.i.i.i.u.q.9.o.g g g g } g g g g g g g d f p p r r r e r r 4 1 1 # 7 ( %.7.B.U.~.(.~ ",
"! (./.Q.K.N.f.$.[ s X.} t.i.i.i.i.i.i.i.p.i.i.u.u.y.q.9.o.h h h } h h o.X.X.h h d d d d r r r r e r e 4 1 7   # / ` 7.B.K.!.(._.",
"! (./.~.K.V.a.$.[ p [ o.o.u.i.i.i.p.i.i.i.i.u.u.q.q.0.0.o.o.X.X.h o.h o.X.X.X.h X.X.d p p r r r r r r 4 1 .   # / ` 3.M.E.!.(._.",
"! (./.Q.K.N.s. .d p d X.o.p.p.p.p.p.i.i.i.u.t.q.0.0.9.X.o.o.X.X.X.X.X.X.X.X.X.X.X.d d p p r e p r r e 4 2 .   . / ` 3.M.G.~./._.",
"! (./.Q.K.N.s.9.[ p r X.o.i.i.p.p.i.i.i.u.u.q.9.9.X.X.X.h o.X.X.h h X.o.X.X.X.h X.d d p p e r r r r e 4 1 <   . / ` 3.C.U.~.(._.",
"! (./.Q.K.A.f.o.[ r d X.o.i.i.i.p.i.i.i.u.q.0.9.X.o.X.o.h h h h h h h h h X.h h X.d d p r e r r r r r 4 1 < . # / ` 3.C.U.!.(.(.",
"! (./.Q.K.C.a.o.[ r d X.o.u.i.p.i.i.i.u.t.0.9.o.o.h h h h h h h h h h h h h X.h X.d d p p r r r r r r e 2 . . # / ` 3.C.U.!.(._.",
"! (.^.Q.K.B.a. .[ r r o.o.u.u.i.i.i.u.q.q.q.o.o.h h h g h h h h h h h X.X.h h h h g d p r r r e r r 5 4 1 1 X X / ` 3.M.E.~./._.",
"! (.^.~.K.h.a...[ e r o.o.u.i.i.i.y.q.9.9.o.o.X.h h h h h h h h h h h h h h X.h h d d p p r r r r r e 4 1 X . 7 / ` 3.C.G.~.(._.",
"! (./.Q.K.h.<.{ [ q e } o.p.i.u.t.q.9.9.9.o.o.X.h h h h h X.h h h h h h h X.h h h d d p r r r r r r r 4 1 < . X / ' 3.C.U.!.(.(.",
"! (./.Q.K.h.a...) q ) X. .a.i.i.t.q.9.o.X.h X.h h h h h h h h h h h h h h h o.h h g d p p r r r r r r 4 6 < X # / ' 3.C.U.!.(._.",
"! _.^.Q.K.h.1.{ ) 8 r [ o.q.u.t.q.0.o.h h h h h } h h h h X.h h h h h h h h h h g d d p r r r r r r r 4 1 < . # / ` 3.C.U.^.^._.",
"! _./.Q.K.h.1.{ 0 8 q [ G 0.t.t.0.9.X.h h h h h h h o.h h h h h h h h h h h h g d d p p r r e r r r e 4 1 <   X / ` 3.C.U.!.(._.",
"! /./.Q.K.M.1.` 0 6 q r X.o.0.0.9.X.X.h h g h h h h h h h h h h o.X.h h h g d d d d s p r r r r r r r 4 1 X   X / ` 3.M.E.~.(.(.",
"Q _./.E.F.m.1.[ ) 6 q r o.o.9.9.9.o.h h h h h h h h h h h h h h h h h h g d d p r r r r r r r p r r e 4 1 X   # X ` 3.C.G.!.(.(.",
"^ /._.W.K.h.1.{ 0 8 8 r [ X.X.o.X.X.X.} X.} h h h h h h h h h X.h h h h X.d p p r r r r r r r e r r r 4 1 < < X / ' 3.C.U.^._._.",
"! _.^.W.K.B.1.%.] 0 r r d d } X.X.X.X.} h h h h h h h h h h h h h h h } d p p p r r r r r r r r r r 4 q w < 7 / ( ' 6.M.U.^._.Q ",
"! ! /.W.K.B.f.2...{ [ [ a d d d d d X.d h X.h h h X.X.h h h h h h d d d d p p r r r r r r r e e 4 4 q 8 ) ) ( _ ' ,.f.M.U.W.^.Q ",
"! ! ! W.K.Z.g.f.<.&.&.{ [ s s s d d X.} X.X.X.X.X.X.X.X.X.h h h X.d d d d p p r r r r e r r e 4 2 1 6 8 ) ] ..>.3.3.M.Z.U.^.! ! ",
"! ! Q W ~ J.A.h.g.f.<.&.[ r 9 9 r d X.} X.X.X.X.X.o.X.X.h o.h h d d d p p p r r r r r p r e 9 2 1 < 7 w ] ..,.3.M.M.Z.F.! ! ! ! ",
"! ! ! ! ! ~ U.K.F.N.j.<.{ [ q q e } } X.X.X.X.X.h h h h h h h d d d p p r r r r r r r r r e q 1 < < 7 ( ` 1.M.M.F.K.E.! ! ! ! ! ",
"! ! ! ! ! ! ^.~.R.J.N.3.%.[ 0 9 r [ X.d X.} X.d h g h h h h d d p p e r r r e e e r r r e e 8 2 1 7 7 _ ..3.M.G.E.!.! ! ! ! ! ! ",
"! ! ! ! ! ! W (.~.R.A.f.&...] [ r [ r [ p d [ [ a a a d a a p s r 5 4 4 2 4 4 4 4 4 4 4 4 q 8 8 w ) _ ' ,.M.F.E./.(.! ! ! ! ! ! ",
"! ! ! ! ! ! ! ! /.R.F.g.f.<.%.{ { [ ) r e r r 9 9 r 0 r 9 9 9 8 8 2 2 1 1 1 1 1 1 1 1 1 1 1 ) ) ] ` ' >.6.M.G.!.(.Q ! ! ! ! ! ! ",
"! ! ! ! ! ! ! ! ! ! K.F.h.g.f.<...[ ) w w < 6 / 6 6 6 6 6 6 6 6 1 < 7 < . < < < < X < < < < / ] ' 1.7.M.M.Z.K.! ! Q ! ! ! ! ! ! ",
"! ! ! ! ! ! ! ! ! ! ! K.K.A.B.f.1.../ X < < < < . 7 7 7 # 7 # # . . X .   X . . X X     X 7 ( ..1.M.C.F.G.K.! ! ! ! ! ! ! ! ! ! ",
"! ! ! ! ! ! ! ! ! ! ! ^.W.E.J.h.3.' _ / X X X X # X # # # # # X # # # # # # # X X X X X X w _ >.7.M.G.E.^.! ! ! ! ! ! ! ! ! ! ! ",
"! ! ! ! ! ! ! ! ! ! ! ! /.^.U.C.6.>.` / / / / / / / / / / / / / / / / / / / / / / / / / / _ ` ,.M.G.E./._.! ! ! ! ! ! ! ! ! ! ! ",
"! ! ! ! ! ! ! ! ! ! ! ! ! _.Y.F.f.3.>.` ` ` ` ' ' ' ' ..' ' ' ' ' ' ' ' ' ' ' ..' ` ' ` ' ' >.7.M.F.~._.! ! ! ! ! ! ! ! ! ! ! ! ",
"! ! ! ! ! ! ! ! ! ! ! ! ! ! Q.G.M.M.6.3.3.3.3.3.3.3.3.3.3.3.3.3.7.3.3.3.3.7.3.3.3.3.3.3.6.7.6.M.Z.K.! ! ! ! ! ! ! Q ! ! ! ! ! ! ",
"! ! ! ! ! ! ! ! ! ! ! ! ! ! ! ! G.Z.C.C.M.M.Z.M.Z.M.C.C.C.C.C.B.B.B.C.C.C.C.C.C.C.C.M.C.C.C.C.F.F.! ! ! ! ! ! ! ! ! ! ! ! ! ! ! "
};
