/* XPM */
static char *result[] = {
/* columns rows colors chars-per-pixel */
"64 64 109 2 ",
"   c #483989",
".  c #53448E",
"X  c #584A8F",
"o  c #554690",
"O  c #574990",
"+  c #5A4C91",
"@  c #5C4F99",
"#  c #5E519A",
"$  c #635695",
"%  c #665995",
"&  c #685B96",
"*  c #65589A",
"=  c #6B5E9B",
"-  c #6F6297",
";  c #6D609C",
":  c #706499",
">  c #766A9B",
",  c #7A6E9B",
"<  c #7F749E",
"1  c #6E64A4",
"2  c #6E65A9",
"3  c #7266A2",
"4  c #7569A2",
"5  c #7066AA",
"6  c #746BA9",
"7  c #786FAA",
"8  c #7C73A7",
"9  c #7A71A9",
"0  c #887E9E",
"q  c #8277A5",
"w  c #8379A0",
"e  c #8579AB",
"r  c #887CAE",
"t  c #8C83A1",
"y  c #8E86AE",
"u  c #958BA3",
"i  c #988FA4",
"p  c #948BAB",
"a  c #9890A4",
"s  c #8F84B0",
"d  c #9387B4",
"f  c #978CB6",
"g  c #988DB7",
"h  c #9A8EB9",
"j  c #9E94B4",
"k  c #9D92B9",
"l  c #A199A7",
"z  c #A69EAA",
"x  c #A59BBB",
"c  c #A7A0A9",
"v  c #A9A2AA",
"b  c #AFA8AC",
"n  c #B3ACAC",
"m  c #ADA5B2",
"M  c #B1ACB4",
"N  c #B6B1B0",
"B  c #BAB5B4",
"V  c #BEBAB6",
"C  c #C0BCB5",
"Z  c #C0BBBA",
"A  c #C7C3B1",
"S  c #CBC6B3",
"D  c #CECAB4",
"F  c #D2CEB5",
"G  c #D3CEBE",
"H  c #D7D3B7",
"J  c #D7D4B9",
"K  c #D8D5B8",
"L  c #DCD9BB",
"P  c #E0DEBA",
"I  c #E4E2BC",
"U  c #E8E7BD",
"Y  c #EBE9BE",
"T  c #F0EFBF",
"R  c #F3F3BF",
"E  c #A79CC0",
"W  c #A99EC1",
"Q  c #B0A6C2",
"!  c #BFB6CB",
"~  c #C1B7CD",
"^  c #C5BCCF",
"/  c #CCC6C5",
"(  c #CDC6C9",
")  c #D4CDCF",
"_  c #DCD7C4",
"`  c #DDD8CC",
"'  c #CDC4D5",
"]  c #D1C9D6",
"[  c #D7CFD9",
"{  c #DDD6D3",
"}  c #DCD4DC",
"|  c #E6E3C2",
" . c #ECE9C4",
".. c #E6E2C8",
"X. c #EEEBCC",
"o. c #F1EFC6",
"O. c #F1EFC9",
"+. c #F4F3C0",
"@. c #F8F7C1",
"#. c #FBFBC3",
"$. c #F5F2CD",
"%. c #F8F6CC",
"&. c #E7E2D6",
"*. c #E9E4D5",
"=. c #E6E0D8",
"-. c #EDE8DA",
";. c #F2EDDC",
":. c #FAF8D0",
">. c #FFFFFF",
/* pixels */
">.>.>.>.>.>.>.>.>.>.>.>.>.>.>.>.>.>.>.>.>.>.>.>.>.>.>.>.>.>.>.>.>.>.>.>.>.>.>.>.>.>.>.>.>.>.>.>.>.>.>.>.>.>.>.>.>.>.>.>.>.>.>.>.",
">.>.>.>.>.>.>.>.>.>.>.>.>.>.>.>.>.>.>.>.>.>.>.>.>.>.>.>.>.>.>.>.>.>.>.>.>.>.>.>.>.>.>.>.>.>.>.>.>.>.>.>.>.>.>.>.>.>.>.>.>.>.>.>.",
">.>.>.>.>.>.>.>.>.>.>.>.>.>.>.>.>.>.>.>.>.>.>.>.>.>.>.>.>.>.>.>.>.>.>.>.>.>.>.>.>.>.>.>.>.>.>.>.>.>.>.>.>.>.>.>.>.>.>.>.>.>.>.>.",
">.>.>.>.>.>.>.>.>.>.>.>.>.>.>.>.>.>.>.>.>.>.>.>.>.>.>.>.>.>.>.>.>.>.>.>.>.>.>.>.>.>.>.>.>.>.>.>.>.>.>.>.>.>.>.>.>.>.>.>.>.>.>.>.",
">.>.>.>.>.>.>.>.>.>.>.>.>.>.>.>.>.>.>.>.>.>.>.>.>.>.>.>.>.>.>.>.>.>.>.>.>.>.>.>.>.>.>.>.>.>.>.>.>.>.>.>.>.>.>.>.>.>.>.>.>.>.>.>.",
">.>.>.>.>.>.>.>.>.>.>.>.>.>.>.>.>.>.>.>.>.>.>.>.>.>.>.>.>.>.>.>.>.>.>.>.>.>.>.>.>.>.>.>.>.>.>.>.>.>.>.>.>.>.>.>.>.>.>.>.>.>.>.>.",
">.>.>.>.>.>.>.>.>.>.>.>.>.>.>.>.>.>.>.>.>.>.>.>.>.>.>.>.>.>.>.>.>.>.>.>.>.>.>.>.>.>.>.>.>.>.>.>.>.>.>.>.>.>.>.>.>.>.>.>.>.>.>.>.",
">.>.>.>.>.>.>.>.>.>.>.>.>.>.>.>.>.>.>.>.>.>.>.>.>.>.>.>.>.>.>.>.>.>.>.>.>.>.>.>.>.>.>.>.>.>.>.>.>.>.>.>.>.>.>.>.>.>.>.>.>.>.>.>.",
">.>.>.>.>.>.>.>.>.>.>.>.>.>.>.>.>.>.>.>.>.>.>.>.>.>.>.>.>.>.>.>.>.>.>.>.>.>.>.>.>.>.>.>.>.>.>.>.>.>.>.>.>.>.>.>.>.>.>.>.>.>.>.>.",
">.>.>.>.>.>.>.>.>.>.>.>.>.>.>.>.>.>.>.>.>.>.>.>.>.>.>.>.>.>.>.>.>.>.>.>.>.>.>.>.>.>.>.>.>.>.>.>.>.>.>.>.>.>.>.>.>.>.>.>.>.>.>.>.",
">.>.>.>.>.>.>.>.>.>.>.>.>.>.>.>.>.>.>.>.>.>.>.>.>.>.>.>.>.>.>.>.>.>.>.>.>.>.>.>.>.>.>.>.>.>.>.>.>.>.>.>.>.>.>.>.>.>.>.>.>.>.>.>.",
">.>.>.>.>.>.>.>.>.>.>.>.>.>.>.>.>.>.>.>.>.>.>.>.>.>.>.>.>.>.>.>.>.>.>.>.>.>.>.>.>.>.>.>.>.>.>.>.>.>.>.>.>.>.>.>.>.>.>.>.>.>.>.>.",
">.>.>.>.>.>.>.>.>.>.>.>.>.>.>.>.>.>.>.+ + + + + + + >.>.>.>.>.>.>.>.>.>.>.+ + + + + X + >.>.>.>.>.>.>.>.>.>.>.>.>.>.>.>.>.>.>.>.",
">.>.>.>.>.>.>.>.>.>.>.>.>.>.>.>.>.>.> , , , , < , , : >.>.>.>.>.>.>.>.>.: , , < , , , , > >.>.>.>.>.>.>.>.>.>.>.>.>.>.>.>.>.>.>.",
">.>.>.>.>.>.>.>.>.>.>.>.>.>.>.>.>.- u b n n n n n c t & >.>.>.>.>.>.>.% t c n n n n N b u - >.>.>.>.>.>.>.>.>.>.>.>.>.>.>.>.>.>.",
">.>.>.>.>.>.>.>.>.>.>.>.>.>.>.>.X : l L Y Y U Y Y D i & O >.>.>.>.>.O % i D Y Y U Y Y K l : + >.>.>.>.>.>.>.>.>.>.>.>.>.>.>.>.>.",
">.>.>.>.>.>.>.>.>.>.>.>.>.>.>.>.+ : c I #.#.#.#.#.J a % . . >.>.>.  o % a K #.#.#.#.#.I c : O >.>.>.>.>.>.>.>.>.>.>.>.>.>.>.>.>.",
">.>.>.>.>.>.>.>.>.>.>.>.>.>.>.>.O - c P #.#.R #.@.J a $ . . X X + O . % a H @.#.#.R #.I c : O >.>.>.>.>.>.>.>.>.>.>.>.>.>.>.>.>.",
">.>.>.>.>.>.>.>.>.>.>.>.>.>.>.>.O : c I @.@.R @.+.J c 4 * = ; ; ; = * 4 z K R @.R @.R I z : O >.>.>.>.>.>.>.>.>.>.>.>.>.>.>.>.>.",
">.>.>.>.>.>.>.>.>.>.>.>.>.>.>.>.O : z L @.@.+.R +.| Z j h h k h h h h x Z P R R R @.R L c : O >.>.>.>.>.>.>.>.>.>.>.>.>.>.>.>.>.",
">.>.>.>.>.>.>.>.>.>.>.>.>.>.>.>.X : c P @.@.+.R +. .` ] ' ' ' ' ' ' ' ] `  .+.R R +.@.L z - X >.>.>.>.>.>.>.>.>.>.>.>.>.>.>.>.>.",
">.>.>.>.>.>.>.>.>.>.>.>.>.>.>.>.X : c L @.+.+.R +. .X.=.=.=.&.&.=.=.=.&.X.o.o.R +.@.@.P c : X >.>.>.>.>.>.>.>.>.>.>.>.>.>.>.>.>.",
">.>.>.>.>.>.>.>.>.>.>.>.>.>.>.>.X - c P @.@.T +.T +.X.X.X.X.X.X.X.X.O.X.o.+.o.R R @.@.L z : O >.>.>.>.>.>.>.>.>.>.>.>.>.>.>.>.>.",
">.>.>.>.>.>.>.>.>.>.>.>.>.>.>.>.O - c L +.+.+.+.+.R R +.+.+. .+.o.+.o.+.T R R +.R @.@.P z : O >.>.>.>.>.>.>.>.>.>.>.>.>.>.>.>.>.",
">.>.>.>.>.>.>.>.>.>.>.>.>.>.>.>.O : c L +.@.+.+.+.+.T R T R R R R R R R R +.T +.o.R R P c : O >.>.>.>.>.>.>.>.>.>.>.>.>.>.>.>.>.",
">.>.>.>.>.>.>.>.>.>.>.>.>.>.>.>.O - c I @.@.+.+.T +.T +.+.+.R +.R R R R R R o.+.+.@.#.L c : O >.>.>.>.>.>.>.>.>.>.>.>.>.>.>.>.>.",
">.>.>.>.>.>.>.>.>.>.>.>.>.>.>.>.X : z L +.@.T R +.+.+.+.T +.T +.R R +.R +.T R R R @.@.P z : X >.>.>.>.>.>.>.>.>.>.>.>.>.>.>.>.>.",
">.>.>.>.>.>.>.>.>.>.>.>.>.>.+ + X : c I @.@.+.R T +.T +.+.+.+.+.R R o.R R R R R +.@.@.P c : X X + >.>.>.>.>.>.>.>.>.>.>.>.>.>.>.",
">.>.>.>.>.>.>.>.>.>.>.>.>.+ + + X - v P @.@. .R +.+.+.T +.+.T +.R o.R R +.R R R +.@.+.P c : + O + + >.>.>.>.>.>.>.>.>.>.>.>.>.>.",
">.>.>.>.>.>.>.>.>.>.>.>.>.>.+ O + - c P @.@.+.+.T +.+.+.+.T +.+.R R R R o.R R R +.+.@.L c - O + + >.>.>.>.>.>.>.>.>.>.>.>.>.>.>.",
">.>.>.>.>.>.>.>.>.>.>.>.>.>.>.O O : c P @.@.+.+.+.T +.T +.+.+.+.R R o.R T R o.R +.@.@.P c : + O >.>.>.>.>.>.>.>.>.>.>.>.>.>.>.>.",
">.>.>.>.>.>.>.>.>.>.>.>.>.>.>.>.O - c P +.@.+.+.+.+.+.+.+.T +.T T R R +.+.R R R +.@.@.P z : + >.>.>.>.>.>.>.>.>.>.>.>.>.>.>.>.>.",
">.>.>.>.>.>.>.>.>.>.>.>.>.>.>.O O : v P +.@.+.+.+.+.+.+.+.+.+.+.+.+.+.R +.R R R +.@.@.P c : O O >.>.>.>.>.>.>.>.>.>.>.>.>.>.>.>.",
">.>.>.>.>.>.>.>.>.>.>.>.>.+ + + O - v P @.@.R R T +.T R +.T +.+.T +.+.+.+.o.R R T @.+.L c : + O + + >.>.>.>.>.>.>.>.>.>.>.>.>.>.",
">.>.>.>.>.>.>.>.>.>.>.>.>.>.+ + O : v P @.#.R @.+.+.+.+.T +.+.@.+.+.+.R +.+.R +.@.#.#.I c : X + + >.>.>.>.>.>.>.>.>.>.>.>.>.>.>.",
">.>.>.>.>.>.>.>.>.>.>.>.>.>.>.O O : v I #.#.#.R @.@.@.@.@.@.@.@.@.@.@.@.@.@.@.@.@.#.#.I c : + X >.>.>.>.>.>.>.>.>.>.>.>.>.>.>.>.",
">.>.>.>.>.>.>.>.>.>.>.>.>.>.>.>.O : c H Y Y Y Y U U U  . .Y Y Y Y Y Y  .U Y Y U U U Y J l : O >.>.>.>.>.>.>.>.>.>.>.>.>.>.>.>.>.",
">.>.>.>.>.>.>.>.>.>.>.>.>.>.>.>.>.- u v b b b N V V V V Z V V V V C V V V V B N n n n c u - >.>.>.>.>.>.>.>.>.>.>.>.>.>.>.>.>.>.",
">.>.>.>.>.>.>.>.>.>.>.>.>.>.>.>.>.>.: > > , , 8 y y y y p y y y y y y y y y y 8 > > > > : >.>.>.>.>.>.>.>.>.>.>.>.>.>.>.>.>.>.>.",
">.>.>.>.>.>.>.>.>.>.>.>.>.>.>.>.>.>.1 : : > > > 6 6 6 7 5 1 1 1 1 5 6 6 6 6 6 > > > > 3 : >.>.>.>.>.>.>.>.>.>.>.>.>.>.>.>.>.>.>.",
">.>.>.>.>.>.>.>.>.>.>.>.>.>.>.>.>.; r k m m c p 8 2 5 5 1 * # @ # * 2 2 5 2 9 p v m m k r = >.>.>.>.>.>.>.>.>.>.>.>.>.>.>.>.>.>.",
">.>.>.>.>.>.>.>.>.>.>.>.>.>.>.>.X ; g ^ } ..L B y 7 6 6 1 = $ $ % = 1 5 6 7 y B _ ..{ ^ g ; + >.>.>.>.>.>.>.>.>.>.>.>.>.>.>.>.>.",
">.>.>.>.>.>.>.>.>.>.>.>.>.>.>.>.X ; k ] -.:.+.J M p 8 : 4 w t t t 0 > 1 8 p M K $.:.-.[ k ; X >.>.>.>.>.>.>.>.>.>.>.>.>.>.>.>.>.",
">.>.>.>.>.>.>.>.>.>.>.>.>.>.>.>.X ; k ] -.:.@. .L B r = < b S F A b 8 ; t B L Y +.$.-.] k ; X >.>.>.>.>.>.>.>.>.>.>.>.>.>.>.>.>.",
">.>.>.>.>.>.>.>.>.>.>.>.>.>.>.>.O ; f ! ] _ I  .T H l < i S +.#.R D i < l H T Y I _ ) ! f ; X >.>.>.>.>.>.>.>.>.>.>.>.>.>.>.>.>.",
">.>.>.>.>.>.>.>.>.>.>.>.>.>.>.>.>.; e f j z b S Y U A n C U #.#.#.I C n A U Y D b j j f e ; >.>.>.>.>.>.>.>.>.>.>.>.>.>.>.>.>.>.",
">.>.>.>.>.>.>.>.>.>.>.>.>.>.>.>.>.>.; ; ; ; , v L T Y P I T +.+.R Y I L U Y L c < & ; ; = >.>.>.>.>.>.>.>.>.>.>.>.>.>.>.>.>.>.>.",
">.>.>.>.>.>.>.>.>.>.>.>.>.>.>.>.>.>.>.o . . $ a G O.%.O.| H S S D H | $.#.$.H p $ . o X >.>.>.>.>.>.>.>.>.>.>.>.>.>.>.>.>.>.>.>.",
">.>.>.>.>.>.>.>.>.>.>.>.>.>.>.>.>.>.>.>.. . $ p ( *.;.*./ z t 0 t z / =.;.-.( y $ . . >.>.>.>.>.>.>.>.>.>.>.>.>.>.>.>.>.>.>.>.>.",
">.>.>.>.>.>.>.>.>.>.>.>.>.>.>.>.>.>.>.>.>.. * d ~ [ } ] Q q $ + * q Q ] } [ ~ d * X >.>.>.>.>.>.>.>.>.>.>.>.>.>.>.>.>.>.>.>.>.>.",
">.>.>.>.>.>.>.>.>.>.>.>.>.>.>.>.>.>.>.>.>.>.* e k E W x d 3 O   o 3 d x x W k e & >.>.>.>.>.>.>.>.>.>.>.>.>.>.>.>.>.>.>.>.>.>.>.",
">.>.>.>.>.>.>.>.>.>.>.>.>.>.>.>.>.>.>.>.>.>.>.: 3 4 4 4 4 >.>.>.>.>.> 4 4 4 3 : >.>.>.>.>.>.>.>.>.>.>.>.>.>.>.>.>.>.>.>.>.>.>.>.",
">.>.>.>.>.>.>.>.>.>.>.>.>.>.>.>.>.>.>.>.>.>.>.>.+ + + + + >.>.>.>.>.+ + + + + >.>.>.>.>.>.>.>.>.>.>.>.>.>.>.>.>.>.>.>.>.>.>.>.>.",
">.>.>.>.>.>.>.>.>.>.>.>.>.>.>.>.>.>.>.>.>.>.>.>.>.>.>.>.>.>.>.>.>.>.>.>.>.>.>.>.>.>.>.>.>.>.>.>.>.>.>.>.>.>.>.>.>.>.>.>.>.>.>.>.",
">.>.>.>.>.>.>.>.>.>.>.>.>.>.>.>.>.>.>.>.>.>.>.>.>.>.>.>.>.>.>.>.>.>.>.>.>.>.>.>.>.>.>.>.>.>.>.>.>.>.>.>.>.>.>.>.>.>.>.>.>.>.>.>.",
">.>.>.>.>.>.>.>.>.>.>.>.>.>.>.>.>.>.>.>.>.>.>.>.>.>.>.>.>.>.>.>.>.>.>.>.>.>.>.>.>.>.>.>.>.>.>.>.>.>.>.>.>.>.>.>.>.>.>.>.>.>.>.>.",
">.>.>.>.>.>.>.>.>.>.>.>.>.>.>.>.>.>.>.>.>.>.>.>.>.>.>.>.>.>.>.>.>.>.>.>.>.>.>.>.>.>.>.>.>.>.>.>.>.>.>.>.>.>.>.>.>.>.>.>.>.>.>.>.",
">.>.>.>.>.>.>.>.>.>.>.>.>.>.>.>.>.>.>.>.>.>.>.>.>.>.>.>.>.>.>.>.>.>.>.>.>.>.>.>.>.>.>.>.>.>.>.>.>.>.>.>.>.>.>.>.>.>.>.>.>.>.>.>.",
">.>.>.>.>.>.>.>.>.>.>.>.>.>.>.>.>.>.>.>.>.>.>.>.>.>.>.>.>.>.>.>.>.>.>.>.>.>.>.>.>.>.>.>.>.>.>.>.>.>.>.>.>.>.>.>.>.>.>.>.>.>.>.>.",
">.>.>.>.>.>.>.>.>.>.>.>.>.>.>.>.>.>.>.>.>.>.>.>.>.>.>.>.>.>.>.>.>.>.>.>.>.>.>.>.>.>.>.>.>.>.>.>.>.>.>.>.>.>.>.>.>.>.>.>.>.>.>.>.",
">.>.>.>.>.>.>.>.>.>.>.>.>.>.>.>.>.>.>.>.>.>.>.>.>.>.>.>.>.>.>.>.>.>.>.>.>.>.>.>.>.>.>.>.>.>.>.>.>.>.>.>.>.>.>.>.>.>.>.>.>.>.>.>.",
">.>.>.>.>.>.>.>.>.>.>.>.>.>.>.>.>.>.>.>.>.>.>.>.>.>.>.>.>.>.>.>.>.>.>.>.>.>.>.>.>.>.>.>.>.>.>.>.>.>.>.>.>.>.>.>.>.>.>.>.>.>.>.>.",
">.>.>.>.>.>.>.>.>.>.>.>.>.>.>.>.>.>.>.>.>.>.>.>.>.>.>.>.>.>.>.>.>.>.>.>.>.>.>.>.>.>.>.>.>.>.>.>.>.>.>.>.>.>.>.>.>.>.>.>.>.>.>.>.",
">.>.>.>.>.>.>.>.>.>.>.>.>.>.>.>.>.>.>.>.>.>.>.>.>.>.>.>.>.>.>.>.>.>.>.>.>.>.>.>.>.>.>.>.>.>.>.>.>.>.>.>.>.>.>.>.>.>.>.>.>.>.>.>."
};
