/* XPM */
static char *Screenshot_2023_05_04_at_15_27_33_f2e61f42c8295c0c4456c3a13818c4bb_png__PNG_Image_900____900_pixels______Scaled__94_1683210483[] = {
/* columns rows colors chars-per-pixel */
"64 64 46 1 ",
"  c #7E970C",
". c #7F980C",
"X c #6F831B",
"o c #758C16",
"O c #798F14",
"+ c #71861B",
"@ c #748B1B",
"# c #7A8D1C",
"$ c #7C9413",
"% c #7F9813",
"& c #77901B",
"* c #7C931C",
"= c #7F981E",
"- c #7E9520",
"; c #81970E",
": c #819A0D",
"> c #838D1C",
", c #8B8E1C",
"< c #849614",
"1 c #899417",
"2 c #849D13",
"3 c #85941D",
"4 c #8B931D",
"5 c #839C1D",
"6 c #8B9B1E",
"7 c #86A016",
"8 c #89A617",
"9 c #89AA17",
"0 c #87A11A",
"q c #8AA41C",
"w c #8CAA1D",
"e c #8FB21F",
"r c #859E20",
"t c #899E20",
"y c #87A220",
"u c #8CA620",
"i c #8DA921",
"p c #91A621",
"a c #91AD22",
"s c #98AF23",
"d c #8FB020",
"f c #92B323",
"g c #99B624",
"h c #94BB25",
"j c #9CBA25",
"k c #97C126",
/* pixels */
"hfiiuiuuuuuiuu2.qu2  :2iq ;:2uuuiiq:2uw2.::8uup64<:qiuiuiq.7uuiu",
"iiiq*=wu3tuu720wuiwq2.qiqqq0q20iiiwqquw60qq**6666q75*363@58quq72",
"uuiy+@uu3,uw2.qiuuii2:qiiiiuq;2wupuiiuuiiii@X>,6iip=X#,#X*uuuq. ",
"uu6655uuttuu2 wu5*ui0.:28iif9::22ttpw*=ui075r56sgau5566uuuiu5qww",
"u644iiuuiiiu::wu&@5i2.: 0ufhe::.<,tur+@ui2 8iuugjauiiiifkhut>6hh",
"u6#3wiga==uu0702@+5i8q2qwiu97.201<1wu5-222.7quuafiuuiiiidiuippdi",
"urX&uijg++uuii2 o+5iuiuiuiq...2iw.2wiii:..:.:8uuwuiuiwupuiuajgiw",
"uu==uid8=32qwuq2%&26wiw75=<<2:207:2ii07022:: 5rquuiwqquuuw2wgauu",
"uipiiw::ui::wiii2...0i2:OX>41:::::2iw %ui2.::o+5pui2:7iiiq.2uuui",
"u8qqq7::uu2:quqq022.282:%-##322::225r220q27::**5qwi5 5uiu0:2uutq",
"uq::;;::wu::wu2;qi2.:::.0i5X*i8:2uy+@up: wi2:qi2.0u*X=piiw 2ut44",
"65222221uu88uw2 7q022.228i5*587:2uu==r552552:wi528w5O*87q2;2aq<1",
">3uiiu44iihhiw2 ..wi2 0iiuiu6..;2wuiy+@yu@X%.qiiiui2::::: :2iq;:",
"36iuqq,455eeiu2: $quq2wpuqwiw2:2<qwiu@#yu=*220w8quu2::<<$222qq22",
"uuiw:;44@@%:wi2 o+5puuuu7:2ipit,122wu,3uiuuiw2.. <>3:<t#+*uq;2ii",
"uur52243*&<2qu2:**55tuqw7:5wqupt1.2061<yiaiiu722<<3<244<o*uw27iu",
"ur+#uuuuuuuuuu2.wu*@#4<.2iq:2iui8:::; 2qihhiiiuii2:0uuu2;2iiuuuu",
"w5@*uiiiuuwqui2:wu*X#3<2qi0;2wqw0%%<2 2wifhuquiuw220qwiq20iuyuui",
" 2uuiihhiw2:wu2.0u*+5iuuui0.; ::%@*uw;:uiiu@+ri2;0i7:quuwupr+#ui",
"%2wuwufhuw2;qu<2wu*@5uuiuw7222:2%+#yw::qwuw@@qi2:qw2:5wwuuw5@#wu",
"wq2::2iiiu: @@6wuu2;*,ti0.7uuuuu6,4uq2 222.  qiuw2:7i7:7iq:2u522",
"qq:::2qwiu22&@yiuw7:<>tu7.2iiwuiw4tuw;.. ::22quuw5:qi7.7i8:2iw::",
" 2w5::22uuuwwuuu2:qwt,<2..2iq:2uuuupq2.:%qwww2:::qwui7;9hfw622wu",
"$2uw2:.:wuuuuuuw7:6pt4<.2:7uq:2wuiuuw2:.2uuui2 .:quui0 8hfuq:2uu",
"+*i8:..::2wu22:2ehq43>5wquuu0::27iw22qqwq22wu*@5wajaw=+=iiuuwuuu",
"X&uw2;2 :2wu2;::eh6,,,tiuiiuq::.2u8:<wuuw::qu#@5ighau5+*iuwwuiiu",
" <2<,1qwwq346wqqip7;5uui72222uq:<41#o&#%2:.225yuur*yiuquiq%7uiiu",
" ::2,tuiuu44uiuiiw7:8pii7 ::2uq:2,3+@+@%::::.wiuu#X3wuiwiq.7uiui",
" 2w5@#uu226q22wu720wquiiq 2q022wwur++ryq02.::22225q54627uww5&=ui",
".<ir+#uw;2wi2:qu2.8iuuui7:7i0.2uuiu@&uiuu2:::.; :qp6,<.7uiir+&ii",
"0wuq%%uuq022qqwu*o5aq2wu8q5#=q03ruw5ydfiuqqqq0qqwwiu6qq722725522",
"uuiq.2uiiu2:quuu&@5i2 5wua3X*iu>4uiiihhiwiuiuwuiupuuiii0 2.2iw::",
"uw22::22wuqq65wu3>qp2:0iuiyrtiut527uw88uuiit4pi5*=*5iii0.<35wu00",
"u8::;2::wiuu3,tit,ui7:0iuuipiuiiw:2uw;%wiuit,tu=XX@=puiq.<,3wuuw",
"uq::07:2uu726tuit62770wfaiq2qwiiqO*uw::iatt<1666=5=qi827706ugpt4",
"uq;2uw::wu< wiippp2 qifhfu0 2uiir+#ww::hft>2:1,6iiiup7:5iiufjs44",
"t36772qquuq27777q77772waiiw2quiiy@@uu0099<<<23#riut52qq202=rgpt6",
",tpq::wuuupu:::: ;8i2;qwiiiiiiipq+@uiiw2 ;:wi*+5i3><:2i0.$X@uuiu",
"3uww9875uu80<<::220q2;qu87quw2qiyO$uwq5762<qi*O0iuu2:qi825=ruw80",
"uiupkf:%ww2;44;:wi2 ::7i0:5i7::uw:2uq:;wp4,wi2.qihh9 2uiiiiiuw:.",
"uuiifd77uu726657uu072.7i0.2iw2quq20iu2qup66pu2.qiyy02quw0wiw5727",
"uppuiiiiuuiiiuiiiuii7.0i7.7iuiuwuuiiuiwuiiiuw7.8i*X=iuu0 2i0;2iw",
"uutqq8qq0quiiiiuy5uiq28i5$5uwq0qquiupttuiiiuu727w=#5quiw20iw20uu",
"uu,4;.;: 2wihhfu#Xriiiii<+=iq :.2wiip4,uiiipiiu7 0i7:7iiuuuiiuiw",
"upt1::2222wiffiu=#5q6rui5#5uq22%<iiiu4tuu8q5quu028i5 2uiiiuuuuy5",
"uupq:2wuiuuiiiiiiw2;o+5iuut,6u6>3iuuiiuui2.oXriuuiw=X=iikfiuir@@",
"rtuw2<uuiuiiiiiuuu22*@5qwu616uu4tiiiiiiww22&&yiwwuu=@=uifdqww5#*",
"+*uu44uiiiuwhhau44qiuu2 quq:2uuuihhiuiw2:quuuiu7 qp*X=i72: 2.2uu",
"@=uut46wqq6uffiu64uipi0:0iq:2iiiihfiiuq<%quwwui72qw*@ruq2..222wu",
"yuuuuw2:.2>tuiiiiiuuuiuwui7.2iiiiiipu44++uu2:qiuq2:5uuiuu0.2w0:2",
"uwwqw0. 22>3uiuiuyuuiiiiuu0:7iuqwuwuut4@@ui2 qiii2:8iiuii822uq 2",
"uq;2:2:2qwquuuiu*+rifhdi3+=wuuq22.<uptuyuuu&+5iiuuqggguii0 2iq :",
"uq:::;.2uuiuiiiu*+rifhai=@=uiiw ..2uuuuuuii*@riiiiiggauiiq.2iw:2",
"uuwq2..;44uighauuyuuiiiuuyuiii9.2quiw22wiuuuywiiiiuiiiuui8.2uihf",
"uquq..:<44uugjpiiiuwuiiiuiiiuiq%2uiu0:2uuuuiiiiuuuuwuuiwuq%2udhf",
"%22: 2wq##wiiiiiii228iuuuuuuiiq.2uw22qq*@uifhiu72qi720iq22wwiiiw",
";::::2uu@@qiuuuuuw2 0iwuiuiuiuq;2ww 2uu@+uifhiu2:0i7:qi7.2iiuuuw",
"q5@&fpt45yiiiu72222.0i02228gguwwq@*qquq3,uu=*yiuqwi2::2:.7uw<0ui",
"wr+-hf,4upiuiu2..::.qi7 : 8jguwirX@upuu4,pu@Xruiuii7::::.2i8:2ui",
"uu5yawut2277wuw02:::7iw02:<=*25wuryiiuupuwu<%qiui0208<O&.0iuq66t",
"quiiuiiw2. .quuu7.:.0iii7;O+o 2wiiiuiwuiiiw2:quwu2 0arXo:2iiwu,4",
"uifi22iw::0q=*ui*@287<wuwq<O :7fa72uu72uiiu&oqiq2q05##>38727uq,4",
"uikd:2uu2:uu@+ru*X5i7.7iipq::.7he:2uw:2wiii@+ri2 qi=X#,tiw;2ut>3",
"2wdd70iw::wu5=ui5=ui2:0iiw7:2q9fw7quq$&qiiu*O6uq2wi5366r*57quutt"
};
