/* XPM */
static char *_46469fb67f24613b854ac5bbd6c5778Shb6OsudokWPeq64[] = {
/* columns rows colors chars-per-pixel */
"64 64 173 2 ",
"   c #573600",
".  c #5A3600",
"X  c #5D3B01",
"o  c #5F3E08",
"O  c #623E03",
"+  c #654204",
"@  c #694606",
"#  c #6C4806",
"$  c #66440A",
"%  c #6A460C",
"&  c #6D4A0D",
"*  c #714D0E",
"=  c #74520F",
"-  c #78530F",
";  c #6C4611",
":  c #6E4B12",
">  c #714E13",
",  c #734E18",
"<  c #745115",
"1  c #7A5515",
"2  c #7D5915",
"3  c #755219",
"4  c #7A561B",
"5  c #7D591C",
"6  c #7F601F",
"7  c #785721",
"8  c #7E5B21",
"9  c #825B17",
"0  c #845D1D",
"q  c #885F1F",
"w  c #86601E",
"e  c #89631E",
"r  c #8B691D",
"t  c #92691A",
"y  c #855E21",
"u  c #885F22",
"i  c #866122",
"p  c #8C6427",
"a  c #8C6627",
"s  c #8D6726",
"d  c #8E6726",
"f  c #8C6625",
"g  c #896223",
"h  c #8E6923",
"j  c #8B6826",
"k  c #8F6A24",
"l  c #8C6927",
"z  c #8F6827",
"x  c #8D6A26",
"c  c #8E6925",
"v  c #866228",
"b  c #876528",
"n  c #866328",
"m  c #8A6328",
"M  c #886428",
"N  c #8B6429",
"B  c #8B6729",
"V  c #8B672B",
"C  c #8D6528",
"Z  c #8D6728",
"A  c #8E6629",
"S  c #8C652A",
"D  c #8F672A",
"F  c #8C6629",
"G  c #8F6928",
"H  c #8E6829",
"J  c #8D6A28",
"K  c #8E6B29",
"L  c #8C682A",
"P  c #8D692B",
"I  c #8F692A",
"U  c #8F6C28",
"Y  c #8F6C2A",
"T  c #8E6A2C",
"R  c #8E6A2E",
"E  c #8E6A2B",
"W  c #906727",
"Q  c #916B26",
"!  c #90672A",
"~  c #906A29",
"^  c #926B28",
"/  c #90682B",
"(  c #906A2B",
")  c #916B2A",
"_  c #926B2A",
"`  c #916D29",
"'  c #926C2B",
"]  c #936E2A",
"[  c #916D2A",
"{  c #91692C",
"}  c #916B2C",
"|  c #906A2C",
" . c #90692E",
".. c #926C2D",
"X. c #936D2C",
"o. c #906C2E",
"O. c #916D2F",
"+. c #926C2E",
"@. c #926B2B",
"#. c #94712C",
"$. c #9A752D",
"%. c #8E6B30",
"&. c #926E32",
"*. c #956F31",
"=. c #926E31",
"-. c #967032",
";. c #977337",
":. c #967233",
">. c #9A7533",
",. c #9D7831",
"<. c #9D7A34",
"1. c #9C773A",
"2. c #9D7A3A",
"3. c #A07B35",
"4. c #A27C36",
"5. c #A27D3B",
"6. c #A17D42",
"7. c #A48036",
"8. c #A5823C",
"9. c #A9853B",
"0. c #AA843E",
"q. c #A68344",
"w. c #AA8544",
"e. c #AD8841",
"r. c #AD8A45",
"t. c #AC8649",
"y. c #AE8B4A",
"u. c #B08946",
"i. c #B28C45",
"p. c #B38E4B",
"a. c #B49046",
"s. c #B59049",
"d. c #B5924C",
"f. c #B9944D",
"g. c #BC984E",
"h. c #BE994F",
"j. c #B58F51",
"k. c #B59352",
"l. c #BB9653",
"z. c #BE9953",
"x. c #BD9954",
"c. c #B89659",
"v. c #BD9A59",
"b. c #C29D56",
"n. c #C19C55",
"m. c #C29E5A",
"M. c #C5A057",
"N. c #C5A25C",
"B. c #C9A55B",
"V. c #C9A45D",
"C. c #CDA95F",
"Z. c #D1A75B",
"A. c #C09E61",
"S. c #C6A361",
"D. c #CBA662",
"F. c #CDA963",
"G. c #CBA669",
"H. c #CDAA6A",
"J. c #D1AB64",
"K. c #D3AD69",
"L. c #D6B067",
"P. c #D7B26B",
"I. c #D6B26C",
"U. c #DAB46D",
"Y. c #DDB96D",
"T. c #D6B371",
"R. c #DCB671",
"E. c #DEBA73",
"W. c #E0BA6F",
"Q. c #E2BB72",
"!. c #E5BD78",
"~. c #E6C075",
"^. c #EDC57D",
/* pixels */
"7.g.P.,.g ] #.d E / / / ` / ` / h l l l J b i i f i f i v m 3 * , % < 6 T i i f g i w e y 0 q g i y q g d / h 0 e q 0 h g g g * ",
"9.B.e.k U h k ` / E / E k E k ^ U U [ [ h b w v i i v i u m 4 > < ; % 4 i %.i 0 q q e g g g i y i u e g h ^ h q q e w g 0 u W > ",
"s.b.h h ` g 0 g g g i g g g f f b h Y U h r 6 i y i i i u v y > : 3 $ : 4 [ E 0 g e w q y i g i y g g g g g g i q i i i y p u , ",
"z.<.e h w f 9 0 i i i i i i w i 6 i V U b w i w i i y g u g p > & : < $ > 5 R E i w g g i y i i u y e e w w w w i q i i u p u * ",
"u.e e g 9 d d C { { C p g y y i w w l Y g w g i g g y g y y S 4 % ; > & & * y [ f u v E [ C i g g u y u g i i i i 5 i B S u 3 $ ",
"^ 0 q q d g ! ! C C C m g g g u i w l U g g k / f g y v y g S y % ; ; , > * < v [ g 0 f [ [ { E g g y u i g i i i i B b 8 , % ; ",
"0 h q u / u g g y y y u u u u g w 0 d E g f / E f y i u y g u S < : % , > > > < R E f v g S / [ g g q i g i i i i i b 8 , : % 3 ",
"e g y 0 y g u y u g y v u u u y i 0 d ` i y v 9 v q g g g u u  .4 3 > % > > > * 4 B *.f y i g g g v y i i q w i b i 6 % ; : , 8 ",
"g u g u y u g q g g m u u y u v i i f B f y i g u g u u u u u p b % < , $ 3 3 & : 6 %.Y B b f v g v i v v v C { i < + < : 3 4 7 ",
"u u y g y g g y u u u u u u u u y i g f g i i i q u g g m u g u V 3 < ; % > 3 : & < 8 &.;.[ R *.[ =.T [ [ B y 9 < > < X < 4 4 7 ",
"g u u u u g i i u y u g g m m g g g v g v i q u u y y y y y y y T 5 : % : $ 3 > ; : 3 6 v i B i b y 0 1 1 > ; & < & + 5 v 7 4 3 ",
"u u y u g y q g u u g C { { { R E d g g g i y g g u y y u y u u { v 3 % 3 % > 3 : : < : > , < : % & ; * & * - < + + = q.P i 4 4 ",
"y v i y g i 0 w i i f E { +.+.+.[ E g g u g u u y y g g ! ! g y V B 4 > > > $ 7 3 % % 3 3 : ; ; 4 < & < , > @ . O 1 m.6.i v 0 0 ",
"5 m i y g v q g g i g f R / E / C d g y y y u g C C ! ! ! ! W q f E 5 > & , $ , 8 , $ : , , : 3 ; : % + . . & 9 5.l.H.u 0 m C 0 ",
"5 f g 0 f C g / h h d f f g f g g i y i g y g g { ! g g g g g y i [ 5 > < < ; % 7 7 3 : & , , ; $ o X @ 0 ;.t.n.A.G.;.0 u u C 1 ",
"1 i v q k ` / ` ` ` / d g g y v i y i g g u y u q y u u u g u g i -.5 & 1 : 3 $ 3 7 7 3 : $ o + > i 2.j.n.m.A.m.j.-.0 g m 0 u 9 ",
"% v %.v i w w g g e u q u g u u u u u g g g y u y u g q y g g u b b 2 : > > > : , 7 1 * 9 t ^ 4.l.z.l.x.V.V.e.! 1 g y y g f v & ",
": 8 b n i i w e m u u q g u u u u u y y y u u g i g g y u u y q J b & + , 3 3 $ % < y 3.0.0.M.n.d.x.J.J.i.Q 9 q ] g g g 5 v B + ",
"$ 3 v V V g q 0 u y u u u g g u g g q q q e q w e q q i g q i v Y 5 $ < > : 3 + > 0 u.m.n.n.i.n.U.L.p.e 1 0 ^ g ! g 0 g %.Y 4 + ",
"% % > 5 w v E E u u u u g u y y u v e g e g g g g g g f e q g k b & & 3 : $ & X < d.n.i.i.n.U.W.i.] 9 e h q q d g g y g %.4 % @ ",
"3 & @ % : 4 5 0 { { u y y y i b i w w i g d E ` ` [ ` d g i f T 8 : > $ % > + % q.c.m.p.D.!.i.W 9 0 0 q 0 e v u v i R V < & : % ",
"6 < @ @ @ % > 3 , 4 u =.%.R b i g i i w i g E / V j E f i f f b : < < o > @ O 7.v.d.p.J.n.q 9 q r e q e e e q y g f i < : < % % ",
"k.y.;.0 - % O ; > > , < 4 8 6 %.i i i g v i i g i i n i V J i 4 : : : : % @ w v.d.m.S.3.9 W g u 0 9 e g u y i C R m < & < & @ 8 ",
"k.B.S.l.t.! , : ; ; ; , > , 3 < 8 i B V E j v i i n i i T T 6 ; 3 : : % X w l.k.V.d./ 9 g u u g h ^ / g q y d g m > > < & + 5 c.",
"T.y.#.l V V 8 4 ; ; O ; , 3 , , > : : 5 8 b %.%.%.%.&.&.V 4 : : : 3 o + 3 y.m.B.7.h 2 e d u u ! / E E f 6 b Y b < & 1 @ O 5 p.v.",
"d.$.6 6 f E v m 7 , ; , ; $ $ > < < < : & & 3 8 8 8 7 3 3 : : < 3 o & : ;.H.k.<.9 0 q q q u p { ` j f 5 i Y b : > * & & & p.v.p.",
"#.w r b { { m m S y , ; : : : $ % : : 3 3 , & % > : , , : : ; < o % 3 6 G.t.6 6 0 h d u q C *.{ / i i V Y b 3 & * 1 O & p.l.l.m.",
"k w b U { C y u y S S y : : : , % $ $ $ < , : : , : : < 3 : & + $ 6 : k.d.2 h w ` d q y u g g y w 5 i =.b : & 2 * + # 5.v.s.f.U.",
"] e u e q g u g y y v %.7 % % 4 7 3 < @ $ % & < , 3 < > % + $ & y > *.w.5 i y g { g g g g 6 w b i Y %.6 3 : < < X @ 5.l.l.g.B.L.",
"U w q q 0 g e e N y y m v , % : 8 3 5 3 > & + + + % & & $ @ < 5 > 5 C 0 f y q y 0 0 u u i 6 r b V Y n 3 < < $ X < 2.n.s.n.f.W.0.",
"d y g g q e q q y u S n 8 < ; ; 5 & i V i n 5 < & + O % 3 n 5 < 1 1 0 y u ! u { f B V V U T U b 6 6 > : : $ $ < q.v.d.m.i.Z.Z.t ",
"g y g u q q q e u y y S v < % ; 5 w y.v.k.k.k.y.y.r.r.y.l.l.k.t.1.h 9 1 1 < y 0 g i 0 i 5 2 < < & : < & @ + 6 l.v.s.f.i.Z.^.4.t ",
"g g g u g w e w i q i i i > < % = 0 n.l.l.M.y.g.f.n.m.Z.J.m.m.V.b.n.d.8.U 2 & + @ & > & < & ; : 3 & @ + & #.g.y.g.d.D.E.H.8./ ` ",
"u u y u q q g g i i i i b = < & - h f.l.s.e.M.F.!.Q.W.L.J.F.V.N.F.V.D.J.I.S.t.>.< : @ + : : 3 3 @ % + = 8.l.a.C.I.I.M.4.k E { p ",
"y u g g g w w e g y g i J < * & # ] f.l.g.F.Y.C.9.3.$.$.^ W h h h #.,.5.e.y.x.N.S.y.=.< % @ $ + @ * i w.d.V.E.V.8.] e h [ { =.-.",
"y g d ! d g w 0 u u i n Y > & & # $.b.i.s.F.7.w W r e W W t ^ ^ ` Q r e e g j J [ 1.w.2.V 3 < < 5 [ y.N.T.I.4.e x h U #.=.d g E ",
"u g C ! h u q q g u i i %.: % > # ` v.d.C.b.U U Q r Q ^ #.` ^ ` ^ W h / #.T j i f y 0 w i b 5 y w.d.S.T.r.2 E +.d +.{ g y C { / ",
"u g g g y e g g g y g v Y & % : # #.l.l.F.<.r l ] ^ ^ ^ ` g e i q g h g w w i k g g v i i y 5 *.k.F.B.>.g >.` U E i 0 y g ! g u ",
"g i q q w e g g g 0 g v b : : : O 2.l.x.b.l U j k E k d g g i g g g g y u y y q g y 0 i f i 9 5.K.g.h e #.h 5 g q g g y q g W g ",
"i i w g g g u i i 0 v i b : 3 < X 8.v.F.q.w h #.E k E d f w i g y u u g g u i i 0 i y q v i 5 y.F.7.r l j g i V m y y u g u e g ",
"q i g e w q i g f y y &.4 ; 3 $ O 8.A.K.6 Y Y x E U [ C f v i i y u g u g y u u y ! / g g e 2 b.b.r #.e g g v m v u u v g g y g ",
"i i w i i e u g y 0 b V 3 < , o # r.T.r.j #.j U T T R f y w i i u u u u u g g d C { d e w w 5 V.r.r U e g y y u S u u u u u w g ",
"g w w w w w i i y v %.y < 3 , X = S.T.j K O.j Y / ` C v i i f d g u u g d C / { { { w q g 0 q D.$.e h w g q g C S m u u g u g q ",
"q q i i g g g y i { R 3 : : : o 6 E.k.r J J T Y E C f i i f R / m u u g d / { / E f 0 q / 1 g N.U h g 0 f g { { S m y u g i w q ",
"i f k k f w i i V [ 8 > 3 : : X y.U.#.` U j E f i g u q u g g W g g y g g C C E f 0 w w #.* E l.f j w 0 ! ! { ! g g u u u u u u ",
"d / [ / d g g f -.b < % 7 ; o % I.f.e ` U U f i y g g q u u u u u u q u g g g i g 0 g w ` @ -.p.g f y i ! C d y g u u u g u u g ",
"E / E j f g f E P 4 , : 3 $   %.I.$.h h d g i y u g g u u u q q y y y g g g y y v i g V i @ >.q.i u i i g g w 0 g q e g u u u g ",
"/ k g i q f E =.6 % 3 : & $   v.v.w ` ` w 9 g y y y u y g g u u u g g i u i i g y i i T 5 + -.1.y y g i 0 g q g w q u g g u u ! ",
"g e 0 w b l U j : < : : $ o 3 G.-.E f f i i u g u y q u g g u q g q g i y y u g V %.%.3 < o &.;.y y u v i y y y y g g y g g u u ",
"e e e e [ :.j 5 : % , : :   6.k.g f f 0 q i g y g C C g y 0 u u q q q q u { =.{ %.i 5 3 < % &.n y y g v B i g m y y y y y y y i ",
"E E E U Y Y 5 & $ % : : o : q.%.v w w w i i i i { C g g g g m g e q i f { C y 5 4 % & 2 & $ Y Y i i v i n 6 b 6 m v g f S B S E ",
"*.R V -.J 5 < < 3 3 : 7 @ 3 7 8 9 w k g i 0 i f { ! u y g v y y y f { C q 4 > < & : : < $ @ i w y y v f %.Y Y Y R R =.%.=.=.=.=.",
"8 4 4 y 4 : & 3 > > 3 O : 4 1 5 g r w 9 2 g l i y y i y y 8 v f C E i 3 < < : % + & + + % < 1 & @ & & = = < < 3 5 5 5 5 4 4 4 4 ",
"> , , > > > * > 4 ; ; O 5 j #.2 * - w ` ` w 6 b g v b B P R R %.v < * < 3 @ X + 1 T E 0 5 2 1 = = > & & & & & & & & & & , , < 3 ",
", , , : > < = & & O & ;.p.p.b.n.4.9 # - e k K O.=.[ R %.%.P 8 4 : ; , < @ X > &.c.S.G.x.q.[ ^ h 2 2 = & # = = = & & & & * & : : ",
"; $ $ % @ + + + > ;.l.m.m.d.g.i.g.f.4.2 # & - 5 5 0 i n 7 4 : : > 3 > X   5 y.H.S.k.v.D.I.F.N.p.y.9.7.K r 6 6 6 6 6 2 < < > > & ",
"3 2 5 * < = r 4.m.l.n.s.i.b.Z.J.M.B.x.g.<.2 + @ * * > * ; , , , , %   $ %.A.v.2.U V g ` 4.l.F.P.n.f.n.n.n.l.z.l.d.k.l.u.5.< 0 , ",
"3 3 = 6 2 <.a.n.s.d.s.n.R.P.B.Y.x.g.C.D.N.v.<.2 + & > > 4 , ; , X X : 2.c.6.i P E j E ` h e ] 8.Z.n.n.n.d.u.u.s.x.x.m.m.j.y > 9 ",
"3 w = w d.b.n.a.i.F.R.P.B.$.e g.r.6 [ 7.y.M.S.A.-.& O % ; O O . $ 8 6.6.P i b i f i q e k / / h Q n.L.b.n.F.W.P.I.F.n.n.D.5.- 9 ",
"2 2 #.M.a.f.f.M.R.P.n.>.r r r ] M.r b j w b ;.w.m.k.*.% O O O , i 1.;.y i n i i 0 w w 0 i d ^ h e t ,.n.L.m.i.0.1.] q g 5.6.9 9 ",
"< j b.d.n.n.Z.L.M.#.e U U #.U r 8.$.j U J U V f B >.t.1.0 , u y &.y 0 f n w i j h g e g y 9 y C Q t W r ^ ` ^ h N u u u p >.u 9 ",
"= 9.x.f.M.W.B.4.h k [ E i J J J b #.b h U -.U B v v u p  ., o 0 4 B m 0 i w i ` / d g g u p g u q e W ^ ` / W g u u u  .p ! 0 9 ",
"2 a.g.B.Q.0.r r ^ W -.T &.&.b Y J Y Y U T b 5 i u y v g y y 9 : * 9 d g g g g 0 g / =.g y u g y w d _ _ B g u u u y u  .u u 9 o ",
"U a.x.Y.h.t W Q ^ d Y U b %.Y %.#.g #.j U U 0 f v v u g u 0 1 1 O 0 g q 0 q w g y q y u u u g g C d h q u g v u u u u u v y u 9 "
};
