/* XPM */
static char *result[] = {
/* columns rows colors chars-per-pixel */
"64 64 40 1 ",
"  c #AADCC0",
". c #A9DBC0",
"X c #A7DAC0",
"o c #A4D9C1",
"O c #A1D7C2",
"+ c #9FD6C2",
"@ c #9DD5C3",
"# c #9BD4C3",
"$ c #9AD4C3",
"% c #A6DAC0",
"& c #A5DAC1",
"* c #A2D8C1",
"= c #A0D7C2",
"- c #9ED6C2",
"; c #9CD5C3",
": c #A3D8C1",
"> c #A0D6C2",
", c #9CD4C3",
"< c #9DD5C2",
"1 c #9ED5C2",
"2 c #A2D8C2",
"3 c #A5D9C1",
"4 c #A8DBC0",
"5 c #A9DCC0",
"6 c #ABDDBF",
"7 c #ACDDBF",
"8 c #ADDEBF",
"9 c #ACDEBF",
"0 c #AEDEBF",
"q c #AFDFBF",
"w c #AFDFBE",
"e c #AEDFBF",
"r c #A7DBC0",
"t c #A6DAC1",
"y c #A3D9C1",
"u c #ABDCBF",
"i c #B0DFBE",
"p c #A1D8C2",
"a c #AADCBF",
"s c white",
/* pixels */
" .XoO+@##$$#####################################################",
"%&o*=-;#########################################################",
":*O>-@,#########################################################",
"++-<@;##########################################################",
";;;,,###########################################################",
"################################################################",
"$$##############################################################",
"$$$########################################$$$$$$$$$$$$$$$$$$$$$",
"$$########################################$$$$$$$$$$$$$$$$$$$$$$",
"################################################################",
"###########################################,,,,,,,,,,,,,,,,,,,,,",
"########################################,;@@<111111111111111111<",
"#######################################;@-+==OOOOOOOOOOOOOOOOOO=",
"######################################,@-=2:o33&333333333333&33o",
"######################################,<>*o%4.5555........5555.4",
"###################################$$#;-Oo%567889777777777798876",
"##################################$$$#;-O34680qwqe00000000eqwq08",
"##################################$$$#;-O3468ewwwqeeeeeeeeqwwwe8",
"###################################$$#;-OoX 78888888888888888887",
"######$$$$$$$$#####################$##;1=*3r.                  .",
"#####$$$$$$$$$$$######################,@+=*o3t%%%tttttttttt%%%t3",
"######$$$$$$$$$########################;<->OO******************O",
"#######################################,;@<1--------------------",
"###,,;;;;@@@;;;;,########################,,,;;;;;;;;;;;;;;;;;;;;",
"##;@<-++++++++--@;,#############################################",
"#,@->O*::yy::*O=+1;,#######################$$$$$$$$$$$$$$$$$$$$$",
"#;-=*o&%rr4rXt3:O+@,######################$$$$$$$$$$$$$$$$$$$$$$",
"#@+OoX. 6676u54&:=-;##$######################$$$$$$$$$$$$$$$$$$#",
",@=:t.680eq087 roO-;#$$#########################################",
",<=:% 70wiiiq8643p-;#$$$########################################",
",@=:%578ewwq08a4oO-;#$$$########################################",
"#@+*3r5677776 4t:=-;##$#########################################",
"#;-=*3%r4..44X&oO+<,#########################################$$$",
"#;@+=2:oooooo:*O+-@,#########################################$$$",
"#,;@-++=======+-<@,#############################################",
"##,,;;@@@@@@@@@;;,############################################,,",
"##########################################################,;;@<1",
"#######$$$$$$$###########################################,;@-+=O",
"#####$$$$$$$$$$$###############$$$$$$$$$$$$$$$###########,@+=*yo",
"######$$$$$$$$$###############$$$$$$$$$$$$$$$$$##########;-=*3X4",
"################################$$$$$$$$$$$$$#########$##@+Oor 6",
"#####################################################$$##@+*&.68",
"###########################,,;;@@@@@@@@@@@@@@@;;,####$$$#@+*t570",
"##########################,;@-++=============++1@;###$$$#@+234 7",
"##########################;@+=2:ooooooooooooy*O=-@,##$$$#;-=:&r5",
"##########################;-=*3%r44444444444rto*=1;##$$##;<+O:o&",
"######################$$##@+*3r5677776667776u5XoO-;#$$$##,;1+=Op",
"######################$$#,@=:%5780ee00000ee0864&*+@#$$$###,;@<--",
"######################$$#,<=:% 70wwwwqqqwwwq075t*+@#$$$#####,,,;",
"######################$$#,@=:t.68000088800089643*+@##$$#########",
"######################$$##@+OoX. 6666ua66666 4tyO-;##$#######$$$",
"##########################;-=*o&%rrrrXXXrrrX%3yO+1;##########$$$",
"##########################,@->O*::::::::::::**O+-@,#############",
"###########################;@<-+++++++++++++++-<@,##############",
"############################,,;;;;@@;;;;;@@;;;;,,###############",
"################################################################",
"###############################$$$$$$$$$$$$$$$##################",
"##############################$$$$$$$$$$$$$$$$$#################",
"###############################$$$$$$$$$$$$$$###################",
"################################################################",
"################################################################",
"################################################################",
"################################################################",
"################################################################"
};
