/* XPM */
static char *result[] = {
/* columns rows colors chars-per-pixel */
"19 16 3 1 ",
"  c #9BD4C3",
". c #B1E0BE",
"X c white",
/* pixels */
"             ....  ",
"                   ",
"       ...         ",
"                   ",
"                   ",
"...            ....",
"                   ",
"                   ",
"         ....      ",
"                   ",
"    ..             ",
"                   ",
"             ...   ",
"       ...         ",
"                   ",
"                   "
};
